<svg width="26" height="26" viewBox="0 0 26 26" fill="none" xmlns="http://www.w3.org/2000/svg">
<rect width="26" height="26" fill="#FB950C"/>
<path fill-rule="evenodd" clip-rule="evenodd" d="M8.08123 5.01203C7.31399 5.15023 6.86125 5.60772 6.86125 6.24484C6.86125 6.58659 6.98416 6.91122 7.21173 7.17046C7.2646 7.23069 8.45273 8.21798 9.85202 9.36441L12.3962 11.4488L12.3424 11.519C12.1748 11.7377 8.65803 15.6006 8.62653 15.6006C8.6057 15.6006 8.17492 15.4755 7.66926 15.3226C6.49498 14.9676 6.46379 14.9611 5.93845 14.9609C5.54283 14.9607 5.48264 14.9682 5.31566 15.0381C5.07773 15.1379 5 15.2403 5 15.4542C5 15.6676 5.12644 15.9172 5.36825 16.1812C5.46922 16.2914 5.93588 16.6905 6.40526 17.0681L7.25869 17.7547L7.17939 18.1404C7.09408 18.5553 7.09896 18.6438 7.21442 18.7781C7.31696 18.8973 7.49251 18.9066 7.89354 18.814C8.0742 18.7723 8.23176 18.7436 8.24365 18.7503C8.25557 18.7569 8.57367 19.1458 8.95055 19.6146C9.68698 20.5305 9.87289 20.7239 10.1686 20.8815C10.742 21.1872 11.0532 20.8974 11.0514 20.0594C11.0505 19.6466 10.9936 19.3843 10.6727 18.3149L10.3836 17.3511L10.4602 17.2768C10.8172 16.9308 14.5389 13.601 14.5534 13.6147C14.5637 13.6245 15.5153 14.7824 16.668 16.188C18.0328 17.8521 18.8176 18.784 18.9178 18.8594C19.3589 19.1915 19.9812 19.2273 20.3955 18.9444C20.7582 18.6968 20.9984 18.1877 21 17.6629C21.0011 17.2887 20.9323 17.1281 19.3606 13.8365C18.5243 12.0852 17.8498 10.6358 17.8617 10.6155C17.8735 10.5952 18.2191 10.103 18.6297 9.5217C19.5468 8.22336 19.6515 8.06353 19.8322 7.68662C20.2084 6.90171 20.2597 6.48055 20.0192 6.15107C19.7046 5.72021 19.1918 5.72891 18.2776 6.18057C17.8606 6.38665 17.8593 6.38749 16.4389 7.3933C15.8483 7.81146 15.3578 8.15362 15.3489 8.15362C15.3401 8.15362 13.9299 7.48261 12.2153 6.66247C10.5007 5.84236 8.99935 5.13659 8.87891 5.0941C8.66607 5.01903 8.26908 4.97817 8.08123 5.01203Z" fill="white"/>
</svg>
