<svg width="26" height="26" viewBox="0 0 26 26" fill="none" xmlns="http://www.w3.org/2000/svg">
<rect width="26" height="26" fill="#5556C8"/>
<path fill-rule="evenodd" clip-rule="evenodd" d="M10.6447 5.10388C9.05359 5.63447 7.82131 6.49485 6.68833 7.86616C6.49621 8.09868 6.0693 8.77971 5.87549 9.16285C5.43898 10.0257 5.16023 10.9401 5.04119 11.8997C4.9804 12.3895 4.98826 13.4968 5.05577 13.9594C5.32106 15.7771 6.07662 17.3118 7.33709 18.5932C8.60346 19.8807 10.1861 20.6779 12.0056 20.9449C12.4553 21.0109 13.5653 21.0195 14.0235 20.9605C16.3659 20.6592 18.411 19.4305 19.7359 17.5286C20.0894 17.0212 20.4193 16.4003 20.6414 15.8242C20.7851 15.4514 21 14.7166 21 14.5981C21 14.4648 20.887 14.2647 20.7719 14.1942C20.5213 14.0405 20.3302 14.0809 19.9585 14.3659C18.9375 15.1489 17.8842 15.5534 16.632 15.6433C16.1431 15.6785 15.9092 15.6687 15.3687 15.5906C13.0088 15.2497 11.0734 13.5192 10.4381 11.182C10.1743 10.2115 10.1696 9.07578 10.4254 8.08107C10.635 7.26597 10.8895 6.74488 11.5062 5.86784C11.6723 5.63161 11.6916 5.46498 11.5766 5.25938C11.4152 4.97054 11.1681 4.92935 10.6447 5.10388Z" fill="white"/>
</svg>
