<svg width="26" height="26" viewBox="0 0 26 26" fill="none" xmlns="http://www.w3.org/2000/svg">
<rect width="26" height="26" fill="#FB950C"/>
<path fill-rule="evenodd" clip-rule="evenodd" d="M14.13 5.03999C14.0722 5.06156 12.7775 5.99483 11.2529 7.11387L8.48099 9.14853L6.99624 9.15784L5.51148 9.16711L5.35349 9.26769C5.25558 9.33005 5.15829 9.43019 5.09771 9.531L5 9.69371V13.0062V16.3186L5.09771 16.4813C5.15829 16.5821 5.25558 16.6823 5.35349 16.7446L5.51148 16.8452L6.9964 16.8545L8.48132 16.8638L11.2129 18.8682C12.7153 19.9706 13.9874 20.9013 14.0399 20.9363C14.1142 20.9859 14.1939 21 14.4003 21C14.643 21 14.6769 20.9916 14.8045 20.8994C14.9942 20.7622 15.1166 20.571 15.1558 20.3503C15.1775 20.2282 15.1857 17.7057 15.18 12.8882C15.1723 6.25316 15.1669 5.60013 15.1191 5.49183C15.0416 5.3165 14.8668 5.12644 14.7198 5.05767C14.572 4.9886 14.2903 4.98016 14.13 5.03999ZM16.9045 10.766C16.6341 10.9047 16.4787 11.1676 16.48 11.4844C16.4812 11.7753 16.5628 11.903 17.1149 12.4785L17.6207 13.0055L17.1041 13.5459C16.5188 14.1584 16.4613 14.2561 16.4853 14.5979C16.5209 15.1049 16.9864 15.4352 17.4725 15.2982C17.606 15.2606 17.6962 15.1834 18.1747 14.6975L18.7238 14.1399L19.2403 14.6652C19.5244 14.9542 19.8077 15.2186 19.8698 15.2527C20.0198 15.3352 20.4236 15.3392 20.5664 15.2596C20.8141 15.1215 21 14.8136 21 14.5414C21 14.2583 20.9491 14.1801 20.3734 13.5787L19.8237 13.0045L20.3459 12.4652C20.8978 11.8951 20.998 11.7459 20.9993 11.4914C21.0008 11.2001 20.8222 10.8953 20.5664 10.7527C20.4236 10.6731 20.0198 10.6771 19.8698 10.7596C19.8077 10.7937 19.5244 11.0581 19.2403 11.3471L18.7238 11.8724L18.1747 11.3155C17.7363 10.8708 17.5989 10.7507 17.4927 10.7191C17.2787 10.6553 17.0911 10.6703 16.9045 10.766Z" fill="white"/>
</svg>
