<svg width="26" height="26" viewBox="0 0 26 26" fill="none" xmlns="http://www.w3.org/2000/svg">
<rect width="26" height="26" fill="#0578F4"/>
<path fill-rule="evenodd" clip-rule="evenodd" d="M12.6921 4.04998C12.4911 4.12118 12.2479 4.37042 12.1774 4.57734C12.0939 4.82254 12.0954 6.33065 12.1793 6.57722C12.2898 6.90171 12.6516 7.15753 13 7.15753C13.3484 7.15753 13.7102 6.90171 13.8207 6.57722C13.9046 6.33065 13.9061 4.82254 13.8226 4.57734C13.6711 4.13251 13.1481 3.88851 12.6921 4.04998ZM6.93555 6.4365C6.75231 6.50144 6.47897 6.78773 6.42933 6.96672C6.40824 7.04263 6.39094 7.18476 6.39084 7.28255C6.39048 7.58977 6.50179 7.7505 7.17327 8.41239C7.8153 9.04526 7.93964 9.12754 8.25391 9.12754C8.71175 9.12754 9.13281 8.7062 9.13281 8.24807C9.13281 7.93361 9.05058 7.80918 8.41812 7.16675C7.74512 6.48312 7.59757 6.38258 7.27143 6.38514C7.16403 6.38599 7.01289 6.4091 6.93555 6.4365ZM18.3561 6.47197C18.2313 6.5342 18.0021 6.73992 17.5819 7.16675C16.9494 7.80918 16.8672 7.93361 16.8672 8.24807C16.8672 8.7062 17.2883 9.12754 17.7461 9.12754C18.0604 9.12754 18.1847 9.04526 18.8267 8.41239C19.4982 7.7505 19.6095 7.58977 19.6092 7.28255C19.6088 6.98969 19.5486 6.84064 19.3506 6.64251C19.0728 6.36442 18.7 6.3005 18.3561 6.47197ZM12.4551 8.51543C12.4164 8.52475 12.2582 8.55659 12.1035 8.58617C10.3629 8.91907 8.96638 10.3194 8.58156 12.1177C8.49205 12.536 8.4922 13.4596 8.58181 13.8767C8.97134 15.6895 10.3115 17.0306 12.1211 17.4184C12.5384 17.5079 13.4616 17.5079 13.8789 17.4184C15.6885 17.0306 17.0287 15.6895 17.4182 13.8767C17.5078 13.4596 17.5079 12.536 17.4184 12.1177C17.035 10.3256 15.7017 8.98014 13.9141 8.5816C13.6588 8.52472 12.6134 8.4773 12.4551 8.51543ZM4.57104 12.1763C4.26314 12.2853 4 12.6636 4 12.9972C4 13.3398 4.26374 13.7106 4.58553 13.8203C4.83057 13.9039 6.33771 13.9024 6.58413 13.8184C6.90841 13.7078 7.16406 13.3458 7.16406 12.9972C7.16406 12.6486 6.90841 12.2866 6.58413 12.176C6.34626 12.0949 4.80026 12.0951 4.57104 12.1763ZM19.4192 12.1731C19.219 12.2465 19.0617 12.3789 18.951 12.5675C18.8679 12.7089 18.8535 12.7722 18.8535 12.9972C18.8535 13.2222 18.8679 13.2855 18.951 13.4269C19.0648 13.6206 19.2197 13.7484 19.4316 13.8232C19.6568 13.9027 21.1794 13.9005 21.4145 13.8203C21.7363 13.7106 22 13.3398 22 12.9972C22 12.6546 21.7363 12.2838 21.4145 12.1741C21.1872 12.0966 19.6299 12.0958 19.4192 12.1731ZM7.9375 16.9283C7.72164 17.0044 6.61042 18.0927 6.47894 18.3567C6.30759 18.7008 6.37146 19.0738 6.64937 19.3519C6.84737 19.55 6.99633 19.6103 7.28901 19.6106C7.59603 19.6109 7.75666 19.4996 8.41812 18.8277C8.9178 18.3201 9.02471 18.193 9.07396 18.0479C9.1905 17.7045 9.11805 17.3853 8.86636 17.1335C8.61538 16.8823 8.27852 16.8079 7.9375 16.9283ZM17.4382 16.9254C17.1303 17.0345 16.8672 17.4128 16.8672 17.7463C16.8672 18.0608 16.9494 18.1852 17.5819 18.8277C18.2433 19.4996 18.404 19.6109 18.711 19.6106C19.0037 19.6103 19.1526 19.55 19.3506 19.3519C19.5486 19.1538 19.6088 19.0047 19.6092 18.7119C19.6095 18.4046 19.4982 18.2439 18.8267 17.582C18.3195 17.082 18.1925 16.975 18.0475 16.9258C17.8379 16.8546 17.6387 16.8544 17.4382 16.9254ZM12.7056 18.8864C12.5051 18.9611 12.3264 19.1208 12.2267 19.3145C12.1407 19.4815 12.1384 19.5058 12.1282 20.3605C12.1159 21.3824 12.1348 21.4835 12.3868 21.7356C12.7388 22.0879 13.2609 22.0882 13.6125 21.7363C13.8578 21.4908 13.8789 21.3866 13.8789 20.4181C13.8789 19.5178 13.8601 19.3969 13.6836 19.1655C13.4788 18.8967 13.0253 18.7673 12.7056 18.8864Z" fill="white"/>
</svg>
