<svg width="131" height="82" viewBox="0 0 131 82" fill="none" xmlns="http://www.w3.org/2000/svg">
<g filter="url(#filter0_d_115_206)">
<rect x="12" y="12" width="58" height="58" rx="10.4956" fill="url(#paint0_linear_115_206)"/>
</g>
<path fill-rule="evenodd" clip-rule="evenodd" d="M36.7104 32.041C35.8564 32.2743 35.094 33.2403 34.676 34.6184C34.4877 35.2393 34.4049 35.7876 34.442 36.1671C34.5373 37.1395 35.2785 38.0293 36.262 38.3518C36.6976 38.4947 37.5534 38.4947 37.989 38.3518C38.7962 38.0871 39.4198 37.4684 39.7187 36.6355C39.8576 36.2482 39.8285 35.51 39.6487 34.8631C39.3989 33.9643 39.0527 33.2719 38.5827 32.7312C38.3334 32.4443 37.8983 32.1402 37.6284 32.0642C37.3608 31.9888 36.9402 31.9782 36.7104 32.041ZM43.4603 32.041C42.6063 32.2743 41.8438 33.2403 41.4259 34.6184C41.2376 35.2393 41.1548 35.7876 41.1919 36.1671C41.2871 37.1395 42.0284 38.0293 43.0118 38.3518C43.4475 38.4947 44.3032 38.4947 44.7389 38.3518C45.5461 38.0871 46.1696 37.4684 46.4685 36.6355C46.6075 36.2482 46.5783 35.51 46.3986 34.8631C46.1487 33.9643 45.8025 33.2719 45.3326 32.7312C45.0833 32.4443 44.6481 32.1402 44.3783 32.0642C44.1107 31.9888 43.69 31.9782 43.4603 32.041ZM30.318 37.4054C29.7339 37.5451 29.33 37.9498 29.1047 38.6214C28.9634 39.0422 28.9655 40.0451 29.1088 40.6713C29.3807 41.8591 29.765 42.5652 30.3797 43.007C31.4645 43.7868 32.9271 43.698 33.9048 42.793C34.4216 42.3145 34.6528 41.8121 34.6843 41.0984C34.7243 40.1906 34.4531 39.6366 33.5588 38.7992C32.8744 38.1585 32.1492 37.7073 31.4612 37.4942C31.1275 37.3908 30.5626 37.347 30.318 37.4054ZM49.6127 37.4391C48.4973 37.7539 47.0703 38.8692 46.5599 39.8251C46.2953 40.3208 46.209 41.0116 46.3449 41.5468C46.5556 42.3765 47.2049 43.055 48.0944 43.3752C48.3586 43.4702 48.4704 43.4847 48.9602 43.4872C49.4001 43.4894 49.5767 43.4724 49.7702 43.4094C50.9622 43.021 51.5467 42.2876 51.8923 40.747C52.026 40.1511 52.0371 39.1592 51.915 38.7281C51.7377 38.102 51.4441 37.7117 50.9931 37.5023C50.6639 37.3495 50.0327 37.3205 49.6127 37.4391ZM39.523 39.7956C37.7703 39.9357 36.6395 40.506 36.114 41.5151C35.8967 41.9325 35.8269 42.2326 35.7938 42.8921C35.7543 43.6797 35.7157 43.7478 35.1527 44.023C34.3096 44.4351 33.7179 44.9735 33.3918 45.6254C32.9819 46.4447 32.9803 47.2366 33.3869 48.017C33.7418 48.698 34.3344 49.2284 35.1475 49.5926C35.7764 49.8744 36.2117 49.9688 36.9905 49.9926C37.6032 50.0114 37.6924 50.0033 38.4537 49.8599C40.0149 49.566 40.9859 49.566 42.5471 49.8599C43.3085 50.0033 43.3976 50.0114 44.0103 49.9926C44.823 49.9678 45.2438 49.8713 45.9228 49.5542C46.736 49.1743 47.2577 48.7001 47.6138 48.017C48.0206 47.2369 48.019 46.4448 47.6091 45.6254C47.283 44.9735 46.6912 44.4351 45.8481 44.023C45.2851 43.7478 45.2465 43.6797 45.207 42.8921C45.1739 42.2326 45.1041 41.9325 44.8868 41.5151C44.4104 40.6002 43.4151 40.0389 41.9191 39.8414C41.4323 39.7771 40.0784 39.7513 39.523 39.7956Z" fill="#6922B3"/>
<defs>
<filter id="filter0_d_115_206" x="-49" y="-45" width="180" height="180" filterUnits="userSpaceOnUse" color-interpolation-filters="sRGB">
<feFlood flood-opacity="0" result="BackgroundImageFix"/>
<feColorMatrix in="SourceAlpha" type="matrix" values="0 0 0 0 0 0 0 0 0 0 0 0 0 0 0 0 0 0 127 0" result="hardAlpha"/>
<feOffset dy="4"/>
<feGaussianBlur stdDeviation="30.5"/>
<feComposite in2="hardAlpha" operator="out"/>
<feColorMatrix type="matrix" values="0 0 0 0 0.533333 0 0 0 0 0.215686 0 0 0 0 1 0 0 0 0.25 0"/>
<feBlend mode="normal" in2="BackgroundImageFix" result="effect1_dropShadow_115_206"/>
<feBlend mode="normal" in="SourceGraphic" in2="effect1_dropShadow_115_206" result="shape"/>
</filter>
<linearGradient id="paint0_linear_115_206" x1="96.4783" y1="-26.4565" x2="0.0217299" y2="82.6087" gradientUnits="userSpaceOnUse">
<stop stop-color="#007AFF"/>
<stop offset="1" stop-color="#FA00FF"/>
</linearGradient>
</defs>
</svg>
