<svg width="23" height="11" viewBox="0 0 23 11" fill="none" xmlns="http://www.w3.org/2000/svg">
<path fill-rule="evenodd" clip-rule="evenodd" d="M20.6069 0.02959C21.3219 0.12959 21.9738 0.677958 22.1692 1.34396C22.2548 1.63565 22.2548 9.35609 22.1692 9.64779C21.9628 10.3511 21.3184 10.8685 20.5254 10.9675C20.2997 10.9956 17.5287 11.0052 11.8725 10.9974C3.58191 10.9859 3.55078 10.9855 3.31933 10.9046C2.78663 10.7182 2.4081 10.4054 2.17947 9.96262C1.99044 9.59662 1.95566 9.32705 1.95466 8.22118L1.95383 7.30618L1.83971 7.30532C1.54069 7.30304 1.14544 6.99213 1.0475 6.6821C0.981639 6.47368 0.981639 4.51807 1.0475 4.30964C1.14544 3.99961 1.54069 3.68871 1.83971 3.68642L1.95383 3.68556L1.95466 2.77056C1.95566 1.6647 1.99044 1.39512 2.17947 1.02912C2.4081 0.58638 2.78663 0.27355 3.31933 0.087166C3.55103 0.00609548 3.57311 0.00589861 11.9555 0.000428317C16.6099 -0.00256264 20.4699 0.0104243 20.6069 0.02959ZM3.51011 1.00468C3.29879 1.09661 3.12478 1.26163 3.02783 1.46202C2.95558 1.61133 2.95168 1.81912 2.95168 5.49587C2.95168 9.16628 2.9557 9.38069 3.0275 9.52972C3.06921 9.6163 3.16541 9.7444 3.24127 9.81437C3.53219 10.0828 2.82742 10.064 12.1838 10.0521L20.6499 10.0413L20.8259 9.93287C21.038 9.8021 21.1912 9.5919 21.2486 9.35263C21.3069 9.10989 21.3069 1.88186 21.2486 1.63912C21.1732 1.32503 20.893 1.02853 20.6062 0.959344C20.5618 0.948639 16.7343 0.93821 12.1008 0.936164C4.01215 0.932622 3.66947 0.935337 3.51011 1.00468Z" fill="white"/>
<rect x="4" y="2" width="16" height="7" rx="1" fill="white"/>
</svg>
