<svg width="131" height="82" viewBox="0 0 131 82" fill="none" xmlns="http://www.w3.org/2000/svg">
<g filter="url(#filter0_d_115_208)">
<rect x="12" y="12" width="58" height="58" rx="10.4956" fill="url(#paint0_linear_115_208)"/>
</g>
<path fill-rule="evenodd" clip-rule="evenodd" d="M39.2848 29.0696C39.0087 29.1542 38.7119 29.4171 38.5836 29.6909C38.4825 29.9066 38.4778 29.9611 38.4774 30.9106L38.4769 31.9045H40.5H42.5231L42.5226 30.9106C42.5222 29.9611 42.5175 29.9066 42.4164 29.6909C42.2843 29.4091 41.9892 29.1534 41.6964 29.067C41.3889 28.9763 39.5832 28.9782 39.2848 29.0696ZM33.8063 33.307C33.5792 33.432 33.5798 33.4249 33.5781 35.7796C33.577 37.324 33.591 37.9795 33.625 37.9795C33.6517 37.9795 35.183 37.5876 37.0278 37.1085C38.8727 36.6294 40.4381 36.2374 40.5065 36.2374C40.5748 36.2374 42.1396 36.6294 43.9836 37.1085C45.8277 37.5876 47.3561 37.9795 47.38 37.9795C47.4478 37.9795 47.4379 33.6376 47.3697 33.489C47.2513 33.2307 47.6425 33.2445 40.491 33.2462C35.1179 33.2475 33.894 33.2586 33.8063 33.307ZM35.6895 38.8344C31.4459 39.9389 30.89 40.0934 30.8004 40.1939C30.7448 40.2563 30.6992 40.3573 30.6992 40.4184C30.6992 40.4796 31.2556 41.9247 31.9356 43.6298C32.6156 45.3349 33.1719 46.7382 33.1719 46.7481C33.1719 46.7581 33.005 46.779 32.801 46.7947C32.2911 46.8339 31.8574 46.9624 31.1917 47.2717C30.5616 47.5644 30.3864 47.6137 29.822 47.6568C29.5373 47.6785 29.3951 47.7118 29.2907 47.781C28.8901 48.0467 28.9059 48.5897 29.3232 48.8984C29.4311 48.9782 29.5063 48.9895 29.8857 48.9829C30.4836 48.9725 30.9966 48.8423 31.6811 48.5273C32.4703 48.1642 32.4956 48.1573 33.1269 48.1324C33.8301 48.1048 34.0908 48.1611 34.8073 48.4956C35.4711 48.8055 35.8164 48.9085 36.4057 48.9722C36.751 49.0095 36.9956 49.0093 37.3587 48.9715C37.9554 48.9094 38.2995 48.8081 38.9714 48.4968C39.6417 48.1862 39.9119 48.1195 40.5 48.1195C41.0881 48.1195 41.3583 48.1862 42.0286 48.4968C42.6964 48.8063 43.0384 48.9075 43.6291 48.9707C43.9898 49.0093 44.2319 49.0095 44.5977 48.9714C45.1945 48.9093 45.5225 48.8116 46.2019 48.4932C46.8438 48.1923 47.1347 48.1208 47.7157 48.1208C48.3056 48.1208 48.6184 48.1994 49.313 48.5221C50.0031 48.8427 50.5101 48.9724 51.1143 48.9829C51.4937 48.9895 51.5689 48.9782 51.6768 48.8984C52.0941 48.5897 52.1099 48.0467 51.7093 47.781C51.6049 47.7118 51.4627 47.6785 51.178 47.6568C50.6136 47.6137 50.4384 47.5644 49.8083 47.2717C49.1414 46.9619 48.7089 46.8339 48.1955 46.7944C47.8821 46.7704 47.8245 46.7541 47.8417 46.6944C47.853 46.6551 48.4109 45.2519 49.0815 43.5761C49.7521 41.9002 50.3008 40.4792 50.3008 40.4182C50.3008 40.3572 50.2553 40.2559 50.1996 40.193C50.1094 40.0911 49.5844 39.9454 45.3554 38.849C42.7468 38.1727 40.582 37.6124 40.545 37.6038C40.5079 37.5952 38.3229 38.149 35.6895 38.8344ZM43.7284 40.2376C45.3774 40.666 46.7835 41.0397 46.853 41.068C46.9225 41.0963 47.0338 41.1904 47.1003 41.277C47.258 41.4824 47.2704 41.8383 47.1265 42.03C46.9947 42.2058 46.7722 42.3248 46.5771 42.3238C46.4862 42.3234 45.0832 41.9771 43.4592 41.5543L40.5066 40.7857L37.5473 41.5537C35.9197 41.9761 34.5111 42.3208 34.4171 42.3198C33.7911 42.3131 33.5335 41.5098 34.0375 41.1359C34.2062 41.0107 40.3867 39.4044 40.5814 39.4352C40.6632 39.4481 42.0794 39.8092 43.7284 40.2376Z" fill="#6922B3"/>
<defs>
<filter id="filter0_d_115_208" x="-49" y="-45" width="180" height="180" filterUnits="userSpaceOnUse" color-interpolation-filters="sRGB">
<feFlood flood-opacity="0" result="BackgroundImageFix"/>
<feColorMatrix in="SourceAlpha" type="matrix" values="0 0 0 0 0 0 0 0 0 0 0 0 0 0 0 0 0 0 127 0" result="hardAlpha"/>
<feOffset dy="4"/>
<feGaussianBlur stdDeviation="30.5"/>
<feComposite in2="hardAlpha" operator="out"/>
<feColorMatrix type="matrix" values="0 0 0 0 0.533333 0 0 0 0 0.215686 0 0 0 0 1 0 0 0 0.25 0"/>
<feBlend mode="normal" in2="BackgroundImageFix" result="effect1_dropShadow_115_208"/>
<feBlend mode="normal" in="SourceGraphic" in2="effect1_dropShadow_115_208" result="shape"/>
</filter>
<linearGradient id="paint0_linear_115_208" x1="96.4783" y1="-26.4565" x2="0.0217299" y2="82.6087" gradientUnits="userSpaceOnUse">
<stop stop-color="#007AFF"/>
<stop offset="1" stop-color="#FA00FF"/>
</linearGradient>
</defs>
</svg>
