<svg width="31" height="32" viewBox="0 0 31 32" fill="none" xmlns="http://www.w3.org/2000/svg">
<path fill-rule="evenodd" clip-rule="evenodd" d="M7.90527 20.6201L9.07199 21.7868L9.71405 22.4289L10.8808 23.5956C12.3098 25.0247 24.3285 34.6519 28.6751 30.3054C28.6751 30.3054 31.768 26.7458 30.3969 25.3747C29.0258 24.0036 25.788 22.3412 24.4749 21.6702C23.1625 20.9998 22.3741 21.0288 20.595 22.2832C18.8152 23.5369 17.2398 23.0123 15.9861 21.8745C15.1496 21.1158 13.8591 19.8253 13.0926 19.0503L13.0983 19.0447C13.0983 19.0447 12.9752 18.9259 12.7737 18.7272C12.5757 18.5264 12.4562 18.4026 12.4562 18.4026L12.4505 18.4083C11.6756 17.6418 10.3851 16.3513 9.62637 15.5148C8.48863 14.2611 7.96396 12.6857 9.21766 10.9059C10.4721 9.1268 10.5018 8.33908 9.83072 7.02598C9.15967 5.71289 7.49727 2.47504 6.12619 1.10396C4.75511 -0.267116 1.19553 2.82577 1.19553 2.82577C-3.15106 7.17235 6.4762 19.191 7.90527 20.6201Z" fill="white"/>
</svg>
