<svg width="131" height="82" viewBox="0 0 131 82" fill="none" xmlns="http://www.w3.org/2000/svg">
<g filter="url(#filter0_d_115_209)">
<rect x="12" y="12" width="58" height="58" rx="10.4956" fill="url(#paint0_linear_115_209)"/>
</g>
<path fill-rule="evenodd" clip-rule="evenodd" d="M35.3408 29.0263C30.8784 29.4486 28.056 31.8829 29.2951 34.2409C30.016 35.6127 31.9946 36.6508 34.6233 37.0362C35.5355 37.17 37.3303 37.1817 38.2414 37.0598C41.7093 36.5957 44.0442 34.9177 43.9172 32.9807C43.7935 31.0935 41.5441 29.5574 38.2189 29.0893C37.6442 29.0085 35.927 28.9708 35.3408 29.0263ZM29.0007 36.7501C29.0014 37.5214 29.0641 37.8485 29.2951 38.2882C30.139 39.8941 32.7444 41.0459 35.8702 41.1951L36.5045 41.2254L36.6793 40.8476C37.0183 40.1145 37.4978 39.3976 38.1022 38.7198C38.3612 38.4293 38.399 38.3688 38.308 38.3914C38.0144 38.4641 36.7369 38.5237 36.0154 38.4983C33.2821 38.4024 30.9677 37.6707 29.3935 36.4047L29 36.0883L29.0007 36.7501ZM43.7806 37.212C41.2628 37.5046 39.049 39.0651 37.9468 41.3243C37.1533 42.9506 36.9783 44.816 37.4561 46.5573C38.4055 50.0179 41.7794 52.3288 45.3467 51.9618C48.6648 51.6204 51.2994 49.1634 51.9197 45.8319C52.0268 45.2566 52.0268 43.9126 51.9197 43.3373C51.5003 41.0848 50.2025 39.2475 48.2337 38.1192C46.9496 37.3832 45.2634 37.0397 43.7806 37.212ZM45.2792 40.597V41.3314L45.5137 41.4402C46.0872 41.7065 46.6252 42.5138 46.6278 43.1118L46.6283 43.2355H45.9538C45.3764 43.2355 45.2792 43.2255 45.2792 43.1662C45.2792 43.1281 45.2385 43.0171 45.1887 42.9195C45.0869 42.72 44.8278 42.5609 44.6047 42.5609C44.3815 42.5609 44.1225 42.72 44.0206 42.9195C43.9709 43.0171 43.9301 43.1593 43.9301 43.2355C43.9301 43.5763 44.2713 43.91 44.6198 43.91C45.1238 43.91 45.6456 44.1346 46.0232 44.5139C46.8327 45.327 46.8235 46.5709 46.0022 47.3722C45.8624 47.5085 45.6426 47.669 45.5137 47.7289L45.2792 47.8378V48.5721V49.3064H44.6047H43.9301V48.5721V47.8378L43.6956 47.7289C43.1222 47.4626 42.5841 46.6554 42.5815 46.0573L42.581 45.9337H43.2556C43.8329 45.9337 43.9301 45.9437 43.9301 46.0029C43.9301 46.041 43.9709 46.1521 44.0206 46.2496C44.1225 46.4492 44.3815 46.6082 44.6047 46.6082C44.9468 46.6082 45.2792 46.2759 45.2792 45.9337C45.2792 45.5832 44.9463 45.2591 44.5862 45.2591C44.094 45.2591 43.5695 45.032 43.1873 44.6534C42.3765 43.8501 42.3852 42.5989 43.2072 41.7969C43.3469 41.6606 43.5667 41.5001 43.6956 41.4402L43.9301 41.3314V40.597V39.8627H44.6047H45.2792V40.597ZM29.0007 40.7953C29.0014 41.573 29.0638 41.8952 29.3006 42.3459C29.5021 42.7294 29.9844 43.2542 30.4601 43.6077C30.8798 43.9194 31.8004 44.3803 32.4438 44.6008C33.319 44.9007 34.4516 45.1258 35.4307 45.1946L35.858 45.2246L35.8639 44.4436C35.8683 43.8664 35.8948 43.523 35.9655 43.1272C36.0181 42.8327 36.0507 42.5813 36.0378 42.5684C36.025 42.5556 35.7567 42.528 35.4415 42.507C32.9615 42.3422 30.799 41.596 29.326 40.3968L29 40.1314L29.0007 40.7953ZM29.0007 44.8426C29.0014 45.6161 29.0639 45.9428 29.2951 46.3828C30.1602 48.0291 32.8462 49.1841 36.0627 49.293C36.4969 49.3077 36.925 49.3061 37.0142 49.2893L37.1763 49.2589L36.8447 48.6174C36.5467 48.0412 36.1075 46.895 36.1059 46.6897C36.1052 46.6042 35.9942 46.5838 35.2958 46.5411C34.6581 46.5021 33.7057 46.3522 33.0117 46.1816C31.5226 45.8156 30.3064 45.2423 29.326 44.4441L29 44.1787L29.0007 44.8426Z" fill="#6922B3"/>
<defs>
<filter id="filter0_d_115_209" x="-49" y="-45" width="180" height="180" filterUnits="userSpaceOnUse" color-interpolation-filters="sRGB">
<feFlood flood-opacity="0" result="BackgroundImageFix"/>
<feColorMatrix in="SourceAlpha" type="matrix" values="0 0 0 0 0 0 0 0 0 0 0 0 0 0 0 0 0 0 127 0" result="hardAlpha"/>
<feOffset dy="4"/>
<feGaussianBlur stdDeviation="30.5"/>
<feComposite in2="hardAlpha" operator="out"/>
<feColorMatrix type="matrix" values="0 0 0 0 0.533333 0 0 0 0 0.215686 0 0 0 0 1 0 0 0 0.25 0"/>
<feBlend mode="normal" in2="BackgroundImageFix" result="effect1_dropShadow_115_209"/>
<feBlend mode="normal" in="SourceGraphic" in2="effect1_dropShadow_115_209" result="shape"/>
</filter>
<linearGradient id="paint0_linear_115_209" x1="96.4783" y1="-26.4565" x2="0.0217299" y2="82.6087" gradientUnits="userSpaceOnUse">
<stop stop-color="#007AFF"/>
<stop offset="1" stop-color="#FA00FF"/>
</linearGradient>
</defs>
</svg>
