<svg width="131" height="82" viewBox="0 0 131 82" fill="none" xmlns="http://www.w3.org/2000/svg">
<g filter="url(#filter0_d_115_205)">
<rect x="12" y="12" width="58" height="58" rx="10.4956" fill="url(#paint0_linear_115_205)"/>
</g>
<path fill-rule="evenodd" clip-rule="evenodd" d="M40.2242 29.1199L40.1021 29.2397V30.953V32.6663L40.2242 32.7861C40.3857 32.9447 40.6143 32.9447 40.7758 32.7861L40.8979 32.6663V30.953V29.2397L40.7758 29.1199C40.6988 29.0443 40.5969 29 40.5 29C40.4031 29 40.3012 29.0443 40.2242 29.1199ZM34.3912 30.4313C34.3241 30.5014 34.2831 30.6071 34.2831 30.7098C34.2831 30.8606 34.3896 30.9801 35.4891 32.0633C36.1525 32.7168 36.746 33.2641 36.8081 33.2796C37.078 33.3467 37.368 33.0621 37.2996 32.7971C37.2839 32.7361 36.7263 32.1535 36.0607 31.5023C34.9383 30.4043 34.8376 30.3183 34.6748 30.3183C34.5557 30.3183 34.4646 30.3545 34.3912 30.4313ZM44.9393 31.5023C44.2737 32.1535 43.7157 32.738 43.6993 32.8013C43.6278 33.0785 43.9082 33.3502 44.1929 33.2793C44.2544 33.264 44.8475 32.7168 45.5109 32.0633C46.5899 31.0003 46.7169 30.8585 46.7169 30.7166C46.7169 30.504 46.5277 30.3183 46.3112 30.3183C46.1667 30.3183 46.0222 30.443 44.9393 31.5023ZM32.4023 34.9353C32.0588 35.026 31.7717 35.1941 31.515 35.4548C31.2665 35.707 29.3462 38.3908 29.1854 38.7104C29.123 38.8344 29.0567 38.9855 29.0381 39.0461L29.0042 39.1563L32.2519 39.1437L35.4996 39.1312L36.5343 37.2758C37.1034 36.2554 37.6357 35.2941 37.7172 35.1397L37.8655 34.859L35.266 34.8622C33.1759 34.8648 32.6149 34.8791 32.4023 34.9353ZM37.6019 36.9823C36.9528 38.1501 36.4217 39.1168 36.4217 39.1306C36.4217 39.1444 38.2569 39.1556 40.5 39.1556C42.7431 39.1556 44.5783 39.1444 44.5783 39.1306C44.5783 39.1168 44.0472 38.1501 43.3981 36.9823L42.2179 34.859H40.5H38.7821L37.6019 36.9823ZM43.4022 35.3574C43.5541 35.6338 44.0885 36.5959 44.5898 37.4955L45.5012 39.1312L48.7485 39.1437L51.9958 39.1563L51.9619 39.0461C51.8768 38.7695 51.6334 38.3896 50.699 37.0748C49.5959 35.5228 49.2889 35.183 48.8224 34.9983L48.5323 34.8834L45.8292 34.8692L43.1261 34.855L43.4022 35.3574ZM29.0346 40.1199C29.0537 40.2206 29.1355 40.4255 29.2165 40.5752C29.4041 40.9217 38.9877 51.3964 39.3645 51.6668C39.5987 51.8347 40.1199 52.0442 40.1733 51.9918C40.1857 51.9796 39.1287 49.2622 37.8245 45.9532L35.4531 39.9368H32.2265H29L29.0346 40.1199ZM36.3222 39.9551C36.3222 39.9933 40.4496 50.4498 40.4742 50.4739C40.4884 50.4879 40.51 50.4894 40.5222 50.4774C40.5446 50.4554 44.6778 39.9901 44.6778 39.9554C44.6778 39.9452 42.7978 39.9368 40.5 39.9368C38.2022 39.9368 36.3222 39.945 36.3222 39.9551ZM43.1755 45.9532C41.8713 49.2622 40.8143 51.9796 40.8267 51.9918C40.8797 52.0438 41.398 51.8361 41.6365 51.6672C42.0135 51.4003 51.5911 40.9306 51.7835 40.5752C51.8645 40.4255 51.9463 40.2206 51.9654 40.1199L52 39.9368H48.7735H45.5469L43.1755 45.9532Z" fill="black" fill-opacity="0.3"/>
<defs>
<filter id="filter0_d_115_205" x="-49" y="-45" width="180" height="180" filterUnits="userSpaceOnUse" color-interpolation-filters="sRGB">
<feFlood flood-opacity="0" result="BackgroundImageFix"/>
<feColorMatrix in="SourceAlpha" type="matrix" values="0 0 0 0 0 0 0 0 0 0 0 0 0 0 0 0 0 0 127 0" result="hardAlpha"/>
<feOffset dy="4"/>
<feGaussianBlur stdDeviation="30.5"/>
<feComposite in2="hardAlpha" operator="out"/>
<feColorMatrix type="matrix" values="0 0 0 0 0.533333 0 0 0 0 0.215686 0 0 0 0 1 0 0 0 0.25 0"/>
<feBlend mode="normal" in2="BackgroundImageFix" result="effect1_dropShadow_115_205"/>
<feBlend mode="normal" in="SourceGraphic" in2="effect1_dropShadow_115_205" result="shape"/>
</filter>
<linearGradient id="paint0_linear_115_205" x1="96.4783" y1="-26.4565" x2="0.0217299" y2="82.6087" gradientUnits="userSpaceOnUse">
<stop stop-color="#007AFF"/>
<stop offset="1" stop-color="#FA00FF"/>
</linearGradient>
</defs>
</svg>
