<svg width="18" height="36" viewBox="0 0 18 36" fill="none" xmlns="http://www.w3.org/2000/svg">
<path fill-rule="evenodd" clip-rule="evenodd" d="M1.56705 0.117045C1.06292 0.29257 0.672356 0.579973 0.420644 0.960736C0.0633842 1.50118 0 1.84428 0 3.2382V4.49272H9H18L17.9772 3.10217C17.9553 1.77324 17.9462 1.69417 17.7702 1.31833C17.5362 0.818372 17.1593 0.440778 16.6603 0.206321L16.2678 0.0218539L9.10014 0.00587146C2.34636 -0.00919571 1.91138 -0.00278864 1.56705 0.117045ZM0.0989424 7.29141C0.159938 7.98351 0.448541 9.28908 0.672215 9.88451C1.14043 11.1307 1.58082 11.7783 2.76714 12.9644C3.49368 13.6908 3.75003 13.999 3.94883 14.3849C4.50474 15.4641 4.45717 14.5441 4.49694 24.9813L4.5325 34.3102L4.71661 34.7035C4.95061 35.2035 5.32748 35.5811 5.82648 35.8155L6.21901 36H8.99473H11.7704L12.163 35.8155C12.662 35.5811 13.0388 35.2035 13.2728 34.7035L13.457 34.3102L13.4921 24.77L13.5272 15.2298L13.6835 14.7722C14.0035 13.8349 14.3443 13.3855 15.7662 12.0263C16.3564 11.4622 16.7173 10.9801 17.0578 10.3013C17.4606 9.49833 17.7992 8.25648 17.894 7.23452L17.9394 6.74575H8.99515H0.0508764L0.0989424 7.29141ZM9.92414 15.9864C10.4116 16.21 10.7906 16.5902 11.0237 17.0896C11.4029 17.9017 11.2143 18.9508 10.5735 19.5928C9.71909 20.4488 8.27037 20.4488 7.41594 19.5928C6.86818 19.0439 6.63158 18.1598 6.84014 17.441C7.23633 16.0755 8.65729 15.4053 9.92414 15.9864Z" fill="white"/>
</svg>
