<svg width="39" height="13" viewBox="0 0 39 13" fill="none" xmlns="http://www.w3.org/2000/svg">
<path fill-rule="evenodd" clip-rule="evenodd" d="M21.535 0H19.885H18.977H17.327C15.306 0 0 1.691 0 7.838C0 7.838 0.33 12.542 2.269 12.542C4.208 12.542 7.673 11.428 9.076 10.974C10.478 10.52 11.015 9.942 11.386 7.797C11.758 5.652 13.243 4.909 14.934 4.827C16.062 4.772 17.887 4.772 18.977 4.778V4.786C18.977 4.786 19.148 4.783 19.431 4.781C19.713 4.783 19.885 4.786 19.885 4.786V4.778C20.975 4.772 22.8 4.772 23.928 4.827C25.619 4.909 27.104 5.652 27.476 7.797C27.847 9.942 28.383 10.52 29.786 10.974C31.189 11.428 34.654 12.542 36.593 12.542C38.532 12.542 38.862 7.838 38.862 7.838C38.862 1.691 23.556 0 21.535 0Z" fill="white"/>
</svg>
