<svg width="131" height="82" viewBox="0 0 131 82" fill="none" xmlns="http://www.w3.org/2000/svg">
<g filter="url(#filter0_d_115_207)">
<rect x="12" y="12" width="58" height="58" rx="10.4956" fill="url(#paint0_linear_115_207)"/>
</g>
<path fill-rule="evenodd" clip-rule="evenodd" d="M39.9745 28.0526C39.3922 28.2167 39.5537 28.0669 34.3753 33.2434C31.6855 35.9321 29.4254 38.221 29.3528 38.3298C28.796 39.1638 28.908 40.2799 29.6201 40.9927C30.0323 41.4052 30.5585 41.619 31.1615 41.619H31.4668V45.2162C31.4668 47.6514 31.4827 48.8904 31.5161 49.0518C31.6858 49.8723 32.3488 50.6133 33.1664 50.896C33.4646 50.9991 33.4854 51 35.6552 51C37.795 51 37.846 50.998 37.9674 50.9072C38.0357 50.8562 38.1333 50.7586 38.1842 50.6903C38.2751 50.5685 38.2774 50.508 38.2994 47.5624L38.3219 44.5588L38.4584 44.3374C38.6284 44.0616 38.9757 43.841 39.3044 43.8001C39.4316 43.7843 40.0615 43.7781 40.7043 43.7863L41.8731 43.8011L42.1092 43.9321C42.3343 44.057 42.4797 44.2057 42.619 44.4535C42.6709 44.5459 42.6862 45.1031 42.7047 47.566C42.7267 50.508 42.7289 50.5685 42.8198 50.6903C42.8708 50.7586 42.9684 50.8562 43.0367 50.9072C43.1581 50.998 43.2091 51 45.3489 51C47.5186 51 47.5395 50.9991 47.8377 50.896C48.6552 50.6133 49.3183 49.8723 49.488 49.0518C49.5214 48.8904 49.5373 47.6514 49.5373 45.2162V41.619H49.8425C50.9226 41.619 51.7959 40.8859 51.9731 39.8305C52.0432 39.4137 51.9755 38.9716 51.7787 38.5594C51.6499 38.2898 51.2589 37.886 46.7561 33.3723C44.0704 30.6803 41.7776 28.416 41.6609 28.3406C41.5443 28.2652 41.342 28.1623 41.2114 28.112C40.8992 27.9917 40.2937 27.9626 39.9745 28.0526Z" fill="#6922B3"/>
<defs>
<filter id="filter0_d_115_207" x="-49" y="-45" width="180" height="180" filterUnits="userSpaceOnUse" color-interpolation-filters="sRGB">
<feFlood flood-opacity="0" result="BackgroundImageFix"/>
<feColorMatrix in="SourceAlpha" type="matrix" values="0 0 0 0 0 0 0 0 0 0 0 0 0 0 0 0 0 0 127 0" result="hardAlpha"/>
<feOffset dy="4"/>
<feGaussianBlur stdDeviation="30.5"/>
<feComposite in2="hardAlpha" operator="out"/>
<feColorMatrix type="matrix" values="0 0 0 0 0.533333 0 0 0 0 0.215686 0 0 0 0 1 0 0 0 0.25 0"/>
<feBlend mode="normal" in2="BackgroundImageFix" result="effect1_dropShadow_115_207"/>
<feBlend mode="normal" in="SourceGraphic" in2="effect1_dropShadow_115_207" result="shape"/>
</filter>
<linearGradient id="paint0_linear_115_207" x1="96.4783" y1="-26.4565" x2="0.0217299" y2="82.6087" gradientUnits="userSpaceOnUse">
<stop stop-color="#007AFF"/>
<stop offset="1" stop-color="#FA00FF"/>
</linearGradient>
</defs>
</svg>
