<svg width="131" height="82" viewBox="0 0 131 82" fill="none" xmlns="http://www.w3.org/2000/svg">
<g filter="url(#filter0_d_115_210)">
<rect x="12" y="12" width="58" height="58" rx="10.4956" fill="url(#paint0_linear_115_210)"/>
</g>
<path fill-rule="evenodd" clip-rule="evenodd" d="M43.8689 30.0109V31.0218H44.5431H45.2173V30.0109V29H44.5431H43.8689V30.0109ZM40.509 29.6813C40.2556 29.9319 40.0483 30.1487 40.0483 30.1632C40.0483 30.1777 40.3463 30.488 40.7107 30.8527L41.373 31.5158L41.8569 31.0336L42.3409 30.5514L41.6783 29.888C41.314 29.5232 41.0054 29.2249 40.9928 29.2252C40.9801 29.2255 40.7624 29.4308 40.509 29.6813ZM47.453 29.8878L46.7903 30.5514L47.2743 31.0336L47.7582 31.5158L48.4205 30.8527C48.7848 30.488 49.0829 30.166 49.0829 30.1373C49.0829 30.0909 48.2245 29.2641 48.1467 29.2357C48.1297 29.2295 47.8175 29.5229 47.453 29.8878ZM42.2734 33.4027C41.989 33.9708 41.7563 34.4513 41.7563 34.4704C41.7563 34.4895 42.3859 35.0911 43.1553 35.8074L44.5544 37.1097L44.0801 37.1394C40.7363 37.349 37.9836 39.7526 37.2583 43.096C37.1218 43.7253 37.0887 44.9808 37.1913 45.6349C37.3132 46.4124 37.7002 47.6457 37.8221 47.6454C37.9034 47.6452 38.3998 47.3281 38.6438 47.1204C38.9411 46.8674 39.2093 46.5199 39.5627 45.9296L39.8401 45.4665L39.8432 44.6578C39.846 43.9584 39.8607 43.7948 39.9523 43.4477C40.5991 40.9965 42.9061 39.4819 45.3555 39.9003C47.032 40.1867 48.4788 41.4071 49.0238 42.9945C49.6046 44.6865 49.2189 46.5061 48.0057 47.7972C47.0542 48.8098 45.5989 49.391 44.2731 49.2877L43.8907 49.258L43.5553 49.7199C43.234 50.1626 42.3751 51.0762 42.0093 51.3645L41.8352 51.5017L42.2565 51.6365C43.8677 52.1524 45.7136 52.1044 47.2243 51.5074C48.1637 51.1362 48.9558 50.63 49.6819 49.9369C50.9526 48.7239 51.7101 47.2352 51.9371 45.5041C52.4908 41.2824 49.3228 37.4285 45.0638 37.1426L44.5731 37.1097L45.8953 35.8783C46.6225 35.201 47.2544 34.6126 47.2994 34.5708C47.378 34.4979 47.3601 34.4522 46.8504 33.4322L46.3195 32.3697H44.555H42.7905L42.2734 33.4027ZM35.312 37.2001C32.1426 37.7147 29.6662 40.1381 29.1035 43.2757C28.8783 44.5311 29.0271 46.0614 29.4875 47.2255C29.8589 48.1645 30.3653 48.9562 31.0587 49.682C32.2722 50.9522 33.7616 51.7094 35.4933 51.9363C39.349 52.4415 42.8963 49.8945 43.7438 46.0123C43.8301 45.6175 43.8435 45.4209 43.8438 44.5454C43.8441 43.5942 43.8367 43.5027 43.7177 42.9954C43.6065 42.5215 43.2863 41.5669 43.2143 41.4949C43.2 41.4807 43.0534 41.5395 42.8885 41.6256C42.4132 41.874 41.8935 42.4229 41.4725 43.1211L41.1258 43.6961L41.1553 44.2471C41.231 45.6627 40.7884 46.8477 39.8046 47.863C39.2876 48.3967 38.6673 48.7967 38.004 49.0242C37.046 49.3528 36.0786 49.3803 35.1313 49.1059C32.0465 48.2123 30.7213 44.577 32.5109 41.9171C32.7666 41.537 33.3524 40.9475 33.7418 40.6785C34.17 40.3826 34.7153 40.1291 35.2437 39.9803C35.6095 39.8772 35.7634 39.8599 36.3961 39.8505L37.1264 39.8397L37.3955 39.4632C37.7434 38.9765 38.2183 38.4501 38.7088 38.008C38.9239 37.814 39.09 37.6394 39.0779 37.6198C39.0449 37.5665 38.4024 37.372 37.9037 37.2644C37.3216 37.1388 35.9059 37.1036 35.312 37.2001Z" fill="#6922B3"/>
<defs>
<filter id="filter0_d_115_210" x="-49" y="-45" width="180" height="180" filterUnits="userSpaceOnUse" color-interpolation-filters="sRGB">
<feFlood flood-opacity="0" result="BackgroundImageFix"/>
<feColorMatrix in="SourceAlpha" type="matrix" values="0 0 0 0 0 0 0 0 0 0 0 0 0 0 0 0 0 0 127 0" result="hardAlpha"/>
<feOffset dy="4"/>
<feGaussianBlur stdDeviation="30.5"/>
<feComposite in2="hardAlpha" operator="out"/>
<feColorMatrix type="matrix" values="0 0 0 0 0.533333 0 0 0 0 0.215686 0 0 0 0 1 0 0 0 0.25 0"/>
<feBlend mode="normal" in2="BackgroundImageFix" result="effect1_dropShadow_115_210"/>
<feBlend mode="normal" in="SourceGraphic" in2="effect1_dropShadow_115_210" result="shape"/>
</filter>
<linearGradient id="paint0_linear_115_210" x1="96.4783" y1="-26.4565" x2="0.0217299" y2="82.6087" gradientUnits="userSpaceOnUse">
<stop stop-color="#007AFF"/>
<stop offset="1" stop-color="#FA00FF"/>
</linearGradient>
</defs>
</svg>
