<svg width="29" height="32" viewBox="0 0 29 32" fill="none" xmlns="http://www.w3.org/2000/svg">
<path fill-rule="evenodd" clip-rule="evenodd" d="M18.5919 4.906V16.082C18.5919 16.1185 18.5868 16.1535 18.5818 16.1886C18.5773 16.22 18.5728 16.2514 18.5719 16.284L8.78086 6.749V4.906C8.78086 2.197 10.9769 0 13.6869 0C16.3959 0 18.5919 2.197 18.5919 4.906ZM1.58296 1.0398L27.774 26.5478C28.142 26.9068 28.15 27.4968 27.791 27.8658C27.608 28.0538 27.366 28.1478 27.123 28.1478C26.889 28.1478 26.654 28.0598 26.473 27.8828L0.281955 2.3748C-0.0870446 2.0148 -0.0950446 1.4248 0.264955 1.0558C0.624955 0.6878 1.21396 0.6798 1.58296 1.0398ZM23.8756 15.7411V12.9021C23.8756 12.3871 23.4576 11.9691 22.9426 11.9691C22.4286 11.9691 22.0106 12.3871 22.0106 12.9021V15.7411C22.0106 16.8931 21.7746 17.9911 21.3496 18.9901L22.7566 20.3601C23.4666 18.9711 23.8756 17.4041 23.8756 15.7411ZM20.8956 29.2695H14.6186V25.8855C16.8526 25.6805 18.8766 24.7465 20.4606 23.3295L19.1246 22.0285C17.6646 23.2935 15.7656 24.0655 13.6866 24.0655C9.09656 24.0655 5.36156 20.3305 5.36156 15.7415V12.9015C5.36156 12.3875 4.94456 11.9695 4.42956 11.9695C3.91556 11.9695 3.49756 12.3875 3.49756 12.9015V15.7415C3.49756 21.0445 7.57155 25.4095 12.7536 25.8825V29.2695H6.47756C5.96256 29.2695 5.54556 29.6865 5.54556 30.2015C5.54556 30.7165 5.96256 31.1335 6.47756 31.1335H20.8956C21.4106 31.1335 21.8286 30.7165 21.8286 30.2015C21.8286 29.6865 21.4106 29.2695 20.8956 29.2695ZM16.8443 19.8075L8.78126 11.9535V16.0815C8.78126 18.7915 10.9773 20.9875 13.6863 20.9875C14.8963 20.9875 15.9893 20.5335 16.8443 19.8075Z" fill="#C4C4C4"/>
</svg>
