<svg width="18" height="14" viewBox="0 0 18 14" fill="none" xmlns="http://www.w3.org/2000/svg">
<path d="M3.47855 0.969689C3.28329 0.774427 2.96671 0.774427 2.77145 0.969689L0.183058 3.55808C-0.0610194 3.80216 -0.0610194 4.19788 0.183058 4.44196C0.427136 4.68604 0.822864 4.68604 1.06694 4.44196L2.5 3.0089V10.5C2.5 12.2259 3.89911 13.625 5.625 13.625H9.625C9.97018 13.625 10.25 13.3452 10.25 13C10.25 12.6548 9.97018 12.375 9.625 12.375H5.625C4.58947 12.375 3.75 11.5356 3.75 10.5V3.0089L5.18306 4.44196C5.42714 4.68604 5.82286 4.68604 6.06694 4.44196C6.31102 4.19788 6.31102 3.80216 6.06694 3.55808L3.47855 0.969689Z" fill="#687684"/>
<path d="M14.3964 13.6553C14.5917 13.8506 14.9083 13.8506 15.1036 13.6553L17.6919 11.0669C17.936 10.8228 17.936 10.4271 17.6919 10.183C17.4479 9.93896 17.0521 9.93896 16.8081 10.183L15.375 11.6161V4.12498C15.375 2.39909 13.9759 0.999981 12.25 0.999981H8.25C7.90482 0.999981 7.625 1.2798 7.625 1.62498C7.625 1.97016 7.90482 2.24998 8.25 2.24998H12.25C13.2855 2.24998 14.125 3.08945 14.125 4.12498V11.6161L12.6919 10.183C12.4479 9.93896 12.0521 9.93896 11.8081 10.183C11.564 10.4271 11.564 10.8228 11.8081 11.0669L14.3964 13.6553Z" fill="#687684"/>
</svg>
