<svg width="26" height="26" viewBox="0 0 26 26" fill="none" xmlns="http://www.w3.org/2000/svg">
<path fill-rule="evenodd" clip-rule="evenodd" d="M25.3653 12.6827C25.3653 19.6873 19.6868 25.3653 12.683 25.3653C5.67855 25.3653 0 19.6873 0 12.6827C0 5.67801 5.67855 0 12.683 0C19.6868 0 25.3653 5.67801 25.3653 12.6827Z" fill="#E4E3E6"/>
<path fill-rule="evenodd" clip-rule="evenodd" d="M14.0179 12.6826L18.0898 8.61136C18.4591 8.24207 18.4591 7.64332 18.0898 7.27403C17.7205 6.90475 17.1218 6.90475 16.7533 7.27403L12.6814 11.346L8.60957 7.27403C8.24029 6.90475 7.64232 6.90475 7.27305 7.27403C6.90378 7.64332 6.90378 8.24207 7.27305 8.61136L11.3449 12.6826L7.27305 16.7546C6.90378 17.1239 6.90378 17.7219 7.27305 18.0912C7.45768 18.2758 7.70006 18.3677 7.94169 18.3677C8.18331 18.3677 8.42493 18.2758 8.60957 18.0912L12.6814 14.0192L16.7533 18.0912C16.9379 18.2758 17.1795 18.3677 17.4212 18.3677C17.6628 18.3677 17.9052 18.2758 18.0898 18.0912C18.4591 17.7219 18.4591 17.1239 18.0898 16.7546L14.0179 12.6826Z" fill="#7E7F83"/>
</svg>
