<svg width="11" height="12" viewBox="0 0 11 12" fill="none" xmlns="http://www.w3.org/2000/svg">
<path fill-rule="evenodd" clip-rule="evenodd" d="M4.9335 0.0299914C4.2296 0.13067 3.6007 0.434088 3.10777 0.910839C2.56703 1.43384 2.2868 2.03777 2.24826 2.76318C2.19444 3.77634 2.74091 4.74487 3.68308 5.30624C4.1465 5.58233 4.59347 5.72253 5.13486 5.76155C6.13832 5.83388 6.99399 5.54692 7.68475 4.90638C8.23158 4.39933 8.51122 3.84763 8.57931 3.14152C8.67028 2.19829 8.28019 1.31984 7.49816 0.70695C6.99381 0.311647 6.52844 0.116411 5.88719 0.0310467C5.57912 -0.00997042 5.21574 -0.0103691 4.9335 0.0299914ZM2.59252 5.81406C1.4269 5.92607 0.619174 6.68705 0.242517 8.02809C-0.0086398 8.92231 -0.0732332 9.99685 0.088843 10.5843C0.219061 11.0563 0.64848 11.5352 1.1459 11.7632C1.37184 11.8668 1.69463 11.9527 1.96378 11.9809C2.12325 11.9976 3.3406 12.0033 5.6681 11.9982L9.1349 11.9908L9.354 11.936C10.1673 11.7329 10.7256 11.2371 10.9287 10.5374C11.0345 10.1729 11.0209 9.3056 10.8987 8.62027C10.627 7.09675 9.94152 6.18207 8.85717 5.89617C8.60924 5.83081 8.16569 5.78109 8.03421 5.80395C7.90843 5.82581 7.73259 5.91129 7.33567 6.14349C6.91285 6.39083 6.85424 6.419 6.53761 6.52692C6.1709 6.6519 5.86827 6.70459 5.51703 6.70464C5.15401 6.70466 4.87641 6.65943 4.51027 6.5406C4.16451 6.42838 4.14954 6.4212 3.60957 6.10918C3.32483 5.94464 3.11416 5.83925 3.03044 5.8195C2.88736 5.78573 2.88739 5.78573 2.59252 5.81406Z" fill="white"/>
</svg>
