<svg width="36" height="26" viewBox="0 0 36 26" fill="none" xmlns="http://www.w3.org/2000/svg">
<path fill-rule="evenodd" clip-rule="evenodd" d="M30.2801 0.187572C30.7281 -0.134428 31.3531 -0.0314284 31.6761 0.416572C34.0071 3.65857 35.2911 7.95357 35.2911 12.5106C35.2911 17.0646 34.0091 21.3576 31.6801 24.5986C31.4851 24.8706 31.1781 25.0156 30.8671 25.0156C30.6661 25.0156 30.4621 24.9546 30.2851 24.8276C29.8371 24.5056 29.7341 23.8806 30.0561 23.4326C32.1421 20.5276 33.2911 16.6486 33.2911 12.5106C33.2911 8.36957 32.1401 4.48857 30.0521 1.58357C29.7301 1.13557 29.8321 0.510572 30.2801 0.187572ZM6.688 7.35297C8.58 5.52097 11.334 2.85197 12.097 2.10697C13.291 0.940971 14.873 1.55097 14.873 2.82897V12.64V13.279V22.091C14.873 23.368 13.291 23.979 12.097 22.813C11.334 22.068 8.58 19.399 6.688 17.567H2.624C1.175 17.567 0 16.392 0 14.943V9.97697C0 8.52797 1.175 7.35297 2.624 7.35297H6.688ZM24.7996 3.46727C24.3506 3.78927 24.2486 4.41427 24.5706 4.86327C26.0296 6.89227 26.8336 9.60827 26.8336 12.5093C26.8336 15.4093 26.0306 18.1243 24.5736 20.1533C24.2516 20.6013 24.3546 21.2263 24.8026 21.5483C24.9796 21.6753 25.1836 21.7363 25.3846 21.7363C25.6956 21.7363 26.0026 21.5913 26.1976 21.3203C27.8976 18.9533 28.8336 15.8243 28.8336 12.5093C28.8336 9.19327 27.8966 6.06227 26.1956 3.69627C25.8726 3.24627 25.2466 3.14527 24.7996 3.46727ZM20.0701 8.68457C19.7481 8.23557 19.8501 7.61057 20.2981 7.28857C20.7471 6.96557 21.3721 7.06757 21.6941 7.51657C22.6621 8.86257 23.1941 10.6356 23.1941 12.5086C23.1941 14.3816 22.6621 16.1526 21.6951 17.4986C21.5001 17.7706 21.1941 17.9156 20.8821 17.9156C20.6811 17.9156 20.4771 17.8536 20.3001 17.7276C19.8521 17.4056 19.7491 16.7806 20.0711 16.3316C20.7961 15.3236 21.1941 13.9656 21.1941 12.5086C21.1941 11.0506 20.7951 9.69257 20.0701 8.68457Z" fill="#C4C4C4"/>
</svg>
