<svg width="12" height="10" viewBox="0 0 12 10" fill="none" xmlns="http://www.w3.org/2000/svg">
<path fill-rule="evenodd" clip-rule="evenodd" d="M5.43715 0.00905987C4.29784 0.119043 3.38411 0.376189 2.46764 0.844734C1.69373 1.2404 0.96529 1.77739 0.370834 2.39046C0.100247 2.66951 0.0237944 2.7981 0.00348513 3.00823C-0.0428087 3.48754 0.379699 3.89786 0.818482 3.79971C0.98363 3.76275 1.07366 3.70368 1.27446 3.50045C2.57781 2.1814 4.23011 1.47224 5.99999 1.47224C7.76988 1.47224 9.42217 2.1814 10.7255 3.50045C10.9284 3.70578 11.0171 3.76353 11.186 3.80028C11.729 3.91851 12.178 3.29075 11.9299 2.76012C11.8652 2.62168 11.4731 2.21036 11.1177 1.90804C9.92737 0.895592 8.58368 0.286023 7.05532 0.0651539C6.72815 0.0178786 5.71111 -0.0173712 5.43715 0.00905987ZM5.50357 2.45079C4.351 2.55263 3.21176 3.03964 2.29461 3.82258C1.74982 4.28764 1.5987 4.51878 1.62039 4.85389C1.63829 5.13058 1.76263 5.32998 1.99443 5.45372C2.11424 5.51768 2.16541 5.53028 2.30422 5.53008C2.52566 5.52975 2.64988 5.46492 2.90436 5.21686C3.49973 4.63648 4.13351 4.26532 4.86957 4.066C5.28539 3.95341 5.53652 3.92124 5.99999 3.92124C7.18675 3.92124 8.20275 4.34647 9.09563 5.21686C9.35011 5.46492 9.47433 5.52975 9.69576 5.53008C10.0708 5.53063 10.3539 5.25066 10.3796 4.85389C10.4013 4.51878 10.2502 4.28764 9.70538 3.82258C8.51703 2.80813 7.01372 2.31733 5.50357 2.45079ZM5.80065 4.8701C5.41473 4.89821 4.99494 4.99722 4.64992 5.1415C4.08832 5.37635 3.4112 5.91848 3.27914 6.23898C3.20229 6.42553 3.21082 6.6493 3.30238 6.84803C3.41591 7.09435 3.61016 7.23392 3.86569 7.25273C4.08131 7.26859 4.23002 7.20331 4.45056 6.99586C4.6639 6.79519 4.82072 6.68242 5.044 6.56916C5.62265 6.27559 6.37733 6.27559 6.95598 6.56916C7.17927 6.68242 7.33609 6.79519 7.54943 6.99586C7.76997 7.20331 7.91868 7.26859 8.13429 7.25273C8.49939 7.22588 8.77024 6.91514 8.77024 6.52314C8.77024 6.29039 8.70049 6.1392 8.49412 5.92464C7.98355 5.39374 7.24242 5.01266 6.51593 4.90741C6.30172 4.87639 5.95949 4.85853 5.80065 4.8701ZM5.85877 7.51081C5.04286 7.6113 4.58341 8.55149 4.96098 9.34801C5.08254 9.60445 5.38007 9.86916 5.64428 9.95592C5.8204 10.0138 6.17806 10.0149 6.34757 9.95808C6.53681 9.89469 6.70451 9.78153 6.84902 9.61966C7.20938 9.21608 7.27549 8.65814 7.02425 8.14122C6.81419 7.70908 6.33845 7.45176 5.85877 7.51081Z" fill="white"/>
</svg>
