<svg width="25" height="22" viewBox="0 0 25 22" fill="none" xmlns="http://www.w3.org/2000/svg">
<path d="M6.52573 21.85C8.49227 8.45221 19.0363 0.760476 24.4505 0.668593C24.5057 0.667655 24.548 0.715736 24.5477 0.770964C24.5121 7.17597 21.1533 7.48579 19.3866 7.64876C18.9784 7.68641 18.6551 7.71623 18.4776 7.81159C17.2811 8.09312 16.4541 8.90875 16.1022 9.32481C15.9435 9.51237 17.315 9.73297 19.7216 9.52231C19.8094 9.51462 19.8629 9.61679 19.8066 9.68467C17.8139 12.0897 15.595 12.5749 14.2042 12.8791C13.7518 12.978 13.387 13.0578 13.1461 13.1782C11.4931 14.7975 8.69959 18.5278 6.70938 21.917C6.65391 22.0114 6.50982 21.9584 6.52573 21.85Z" fill="white"/>
<path d="M5.57593 1.42411C5.99014 1.42411 6.32593 1.75989 6.32593 2.17411V5.67411H9.82593C10.2401 5.67411 10.5759 6.00989 10.5759 6.42411C10.5759 6.83832 10.2401 7.17411 9.82593 7.17411H6.32593V10.6741C6.32593 11.0883 5.99014 11.4241 5.57593 11.4241C5.16171 11.4241 4.82593 11.0883 4.82593 10.6741V7.17411H1.32593C0.911714 7.17411 0.575928 6.83832 0.575928 6.42411C0.575928 6.00989 0.911714 5.67411 1.32593 5.67411H4.82593V2.17411C4.82593 1.75989 5.16171 1.42411 5.57593 1.42411Z" fill="white"/>
</svg>
