<svg width="62" height="62" viewBox="0 0 62 62" fill="none" xmlns="http://www.w3.org/2000/svg">
<rect width="62" height="62" rx="6" fill="url(#paint0_linear_6_3126)"/>
<path fill-rule="evenodd" clip-rule="evenodd" d="M21.1582 16.0898C18.487 16.5597 16.4668 18.6321 16.0659 21.3139C15.978 21.9016 15.978 40.096 16.0659 40.6837C16.4749 43.4193 18.5805 45.5251 21.3159 45.9341C21.9035 46.022 40.0965 46.022 40.6841 45.9341C43.4195 45.5251 45.5251 43.4193 45.9341 40.6837C46.022 40.096 46.022 21.9016 45.9341 21.3139C45.5251 18.5783 43.4195 16.4725 40.6841 16.0635C40.0167 15.9637 21.7351 15.9883 21.1582 16.0898ZM30.1603 22.318C30.4141 22.4474 30.7084 22.7503 30.854 23.0317C30.9679 23.2521 31.0321 23.2521 31.146 23.0317C31.2908 22.7518 31.5849 22.4483 31.8439 22.3116C32.1806 22.1338 32.8084 22.1345 33.1466 22.313C33.4385 22.467 33.7835 22.8553 33.8751 23.1327C33.9118 23.2438 33.9318 23.5102 33.9197 23.7247L33.8977 24.1148L31.3357 28.5517C29.9267 30.9919 28.7739 33.0022 28.7739 33.0189C28.7739 33.0356 29.4796 33.0493 30.3421 33.0493H31.9103L32.7293 34.4674C33.1798 35.2473 33.5573 35.9069 33.5682 35.9332C33.5792 35.9595 30.9957 35.9738 27.8272 35.9652L22.0662 35.9494L21.8263 35.821C21.547 35.6716 21.2364 35.3371 21.1216 35.0621C21.0179 34.8141 21.0179 34.2139 21.1216 33.9659C21.2364 33.6909 21.547 33.3565 21.8263 33.207C22.0542 33.0851 22.1486 33.0778 23.7144 33.0607L25.3625 33.0427L27.3358 29.6212L29.3091 26.1998L28.7603 25.2451C28.4584 24.7201 28.1798 24.2168 28.1412 24.1267C28.0463 23.9057 28.0522 23.3063 28.1514 23.0688C28.3128 22.6825 28.692 22.3454 29.125 22.2034C29.3588 22.1267 29.9038 22.1871 30.1603 22.318ZM35.0376 30.2665L36.6255 33.0201L38.2797 33.0493C39.8395 33.077 39.9475 33.086 40.1737 33.207C40.453 33.3565 40.7636 33.6909 40.8784 33.9659C40.9821 34.2139 40.9821 34.8141 40.8784 35.0621C40.7632 35.3381 40.4523 35.6722 40.1737 35.8195C39.9696 35.9274 39.8148 35.9496 39.1359 35.968L38.3378 35.9896L38.8561 36.8812C39.4558 37.9132 39.5513 38.2103 39.441 38.7027C39.2053 39.7563 37.8788 40.1926 37.0748 39.4811C36.9183 39.3426 36.1371 38.0398 34.2803 34.8208C32.8628 32.3633 31.703 30.3306 31.703 30.3035C31.703 30.2619 33.0069 27.968 33.2679 27.5505C33.3153 27.4746 33.3756 27.4351 33.4019 27.4627C33.4281 27.4903 34.1641 28.752 35.0376 30.2665ZM26.3012 37.2823C26.2548 37.3548 25.9822 37.8219 25.6955 38.3204C25.0927 39.3679 24.8562 39.6302 24.3929 39.7649C23.5709 40.0039 22.7428 39.5242 22.559 38.7027C22.4686 38.299 22.5398 37.94 22.8027 37.4742L22.9854 37.1504H24.6854H26.3855L26.3012 37.2823Z" fill="white"/>
<defs>
<linearGradient id="paint0_linear_6_3126" x1="3.54286" y1="62" x2="62" y2="2.65714" gradientUnits="userSpaceOnUse">
<stop stop-color="#F60094"/>
<stop offset="1" stop-color="#FF5F72"/>
</linearGradient>
</defs>
</svg>
