<svg width="62" height="62" viewBox="0 0 62 62" fill="none" xmlns="http://www.w3.org/2000/svg">
<rect width="62" height="62" rx="6" fill="url(#paint0_linear_6_3118)"/>
<rect width="62" height="62" rx="6" fill="url(#paint1_linear_6_3118)"/>
<path fill-rule="evenodd" clip-rule="evenodd" d="M23.9343 21.1717L17.5556 24.3661L30.519 24.3691L43.4823 24.3721L37.1362 21.1994C32.3094 18.7863 30.7329 18.0208 30.5515 18.002C30.3227 17.9784 30.0505 18.1088 23.9343 21.1717ZM17.034 26.0999C17.2452 27.0016 18.3368 28.6909 18.909 29.0015L19.1277 29.1202H30.5H41.8723L42.091 29.0015C42.6632 28.6909 43.7548 27.0016 43.966 26.0999L44 25.9548H30.5H17L17.034 26.0999ZM20.1656 35.4774V40.2519H22.5647H24.9637V35.4774V30.7029H22.5647H20.1656V35.4774ZM28.1273 35.4774V40.2519H30.5H32.8727V35.4774V30.7029H30.5H28.1273V35.4774ZM36.0363 35.4774V40.2519H38.4353H40.8344V35.4774V30.7029H38.4353H36.0363V35.4774ZM18.4497 41.9085C18.0335 42.0903 17.002 43.7194 17.002 44.1948C17.002 44.4694 17.1841 44.7721 17.4224 44.8938C17.6293 44.9994 17.7059 45 30.5 45C43.2941 45 43.3707 44.9994 43.5776 44.8938C43.8176 44.7712 43.998 44.469 43.998 44.1891C43.998 43.7975 43.0896 42.2889 42.6628 41.9716L42.5139 41.861L30.5621 41.8497C20.7166 41.8403 18.5819 41.8507 18.4497 41.9085Z" fill="white"/>
<defs>
<linearGradient id="paint0_linear_6_3118" x1="3.54286" y1="62" x2="62" y2="2.65714" gradientUnits="userSpaceOnUse">
<stop stop-color="#0364F7"/>
<stop offset="1" stop-color="#2E4FFF"/>
</linearGradient>
<linearGradient id="paint1_linear_6_3118" x1="31" y1="0" x2="31" y2="62" gradientUnits="userSpaceOnUse">
<stop stop-color="#CFFF47"/>
<stop offset="1" stop-color="#3ABF47"/>
</linearGradient>
</defs>
</svg>
