<svg width="62" height="62" viewBox="0 0 62 62" fill="none" xmlns="http://www.w3.org/2000/svg">
<rect width="62" height="62" rx="6" fill="url(#paint0_linear_6_3127)"/>
<path fill-rule="evenodd" clip-rule="evenodd" d="M18.406 28.1163C16.664 24.9583 16 22.4123 16 20.6927C16 18.9731 16.4225 18.4799 16.8512 18.0815C17.2799 17.683 19.2131 16.4912 19.5425 16.2689C19.8719 16.0466 21.1291 15.6146 21.9174 16.7487C22.7058 17.8828 24.1904 20.1599 25.214 21.6725C26.8201 23.8151 25.5406 24.7557 25.1272 25.3194C24.3667 26.3568 23.9288 26.6126 23.9288 27.8864C23.9288 29.1602 27.4886 32.779 28.3398 33.6707C29.1846 34.5555 32.7317 37.6651 33.8308 37.8313C34.9376 37.9988 36.4194 36.827 36.7345 36.5298C38.3371 35.2994 39.2418 36.2322 39.98 36.6377C40.7182 37.0432 44.0536 39.1216 45.0872 39.8222C46.06 40.5227 45.9992 41.6055 45.9992 41.6055C45.9992 41.6055 45.3072 43.6259 43.7496 45.172C43.3667 45.5522 42.716 46 41.0744 46C39.4328 46 37.6788 45.7002 33.5104 43.4077C30.0996 41.5319 26.8482 38.5946 25.1458 36.8749C23.3826 35.1553 20.3957 31.7237 18.406 28.1163Z" fill="white"/>
<defs>
<linearGradient id="paint0_linear_6_3127" x1="31" y1="0" x2="31" y2="62" gradientUnits="userSpaceOnUse">
<stop stop-color="#47FF70"/>
<stop offset="1" stop-color="#3ABF7F"/>
</linearGradient>
</defs>
</svg>
