<svg width="62" height="62" viewBox="0 0 62 62" fill="none" xmlns="http://www.w3.org/2000/svg">
<rect width="62" height="62" rx="6" fill="url(#paint0_linear_6_3121)"/>
<path fill-rule="evenodd" clip-rule="evenodd" d="M30.0839 18.0171C29.9859 18.0285 29.6881 18.0622 29.4222 18.0922C27.2327 18.3383 24.9822 19.2492 23.1219 20.6422C22.5154 21.0963 21.397 22.1776 20.8961 22.7941C19.689 24.2797 18.7103 26.2782 18.3054 28.084C18.0564 29.1947 18 29.7346 18 31.0087C18 32.2828 18.0564 32.8228 18.3054 33.9334C18.7105 35.7402 19.6914 37.7426 20.8968 39.2234C21.3675 39.8015 22.2907 40.7168 22.8683 41.1779C24.3287 42.3437 26.3037 43.299 28.0735 43.6955C29.1378 43.9339 29.773 44 31 44C33.1628 44 34.8211 43.619 36.7258 42.6845C38.8482 41.6432 40.5417 40.1599 41.8677 38.1806C42.6456 37.0196 43.3914 35.2857 43.6946 33.9334C43.9436 32.8228 44 32.2828 44 31.0087C44 29.7346 43.9436 29.1947 43.6946 28.084C43.2895 26.2772 42.3086 24.2748 41.1032 22.7941C40.6325 22.216 39.7093 21.3006 39.1317 20.8395C37.3622 19.427 35.1782 18.4757 32.9235 18.1356C32.2802 18.0385 30.5279 17.9654 30.0839 18.0171ZM31.8883 21.9807C33.2592 22.2708 34.3943 23.2052 34.9575 24.5071C35.1959 25.0583 35.2874 25.5385 35.2852 26.2274C35.2814 27.429 34.8388 28.4518 33.9594 29.2915C33.4869 29.7426 32.9873 30.0519 32.4094 30.2509C29.789 31.1536 27.0117 29.3802 26.7261 26.6219C26.5014 24.4515 27.956 22.4451 30.0896 21.9825C30.5233 21.8885 31.4484 21.8875 31.8883 21.9807ZM34.5882 32.7284C35.9079 33.0948 36.8968 33.9242 37.4593 35.1367C37.9666 36.2301 37.9937 37.2913 37.5317 37.9658C37.1496 38.5236 35.7906 39.4283 34.5882 39.9254C32.4416 40.8128 29.7279 40.8328 27.5391 39.9773C26.3429 39.5097 24.7881 38.4961 24.4513 37.9643C24.0545 37.3376 24.0306 36.5153 24.3796 35.4986C24.8924 34.0048 26.2671 32.8791 27.8699 32.6405C28.0378 32.6155 29.5266 32.5996 31.1781 32.6052C34.1088 32.6152 34.1908 32.6181 34.5882 32.7284Z" fill="white"/>
<defs>
<linearGradient id="paint0_linear_6_3121" x1="3.54286" y1="62" x2="62" y2="2.65714" gradientUnits="userSpaceOnUse">
<stop stop-color="#F65900"/>
<stop offset="1" stop-color="#FF5F5F"/>
</linearGradient>
</defs>
</svg>
