<svg width="62" height="62" viewBox="0 0 62 62" fill="none" xmlns="http://www.w3.org/2000/svg">
<rect width="62" height="62" rx="6" fill="url(#paint0_linear_6_3124)"/>
<path fill-rule="evenodd" clip-rule="evenodd" d="M35.8503 19.0747C35.0963 19.259 34.3399 19.7362 33.8606 20.3301C33.651 20.5897 33.2565 21.3017 33.2565 21.4204C33.2565 21.4625 31.6612 21.4758 26.5531 21.4762L19.8497 21.4766L19.6055 21.587C19.3183 21.7167 19.2304 21.8031 19.0964 22.0873C18.918 22.4656 19.002 22.8821 19.3177 23.1855C19.6375 23.4929 19.1189 23.4713 26.5224 23.4851L33.2439 23.4977L33.329 23.72C33.7428 24.8017 34.8113 25.6782 36.0018 25.9123C37.6721 26.2407 39.4168 25.3314 40.0567 23.799L40.1734 23.5196L41.6845 23.4957C43.3184 23.47 43.383 23.4603 43.6742 23.1971C43.855 23.0336 43.9993 22.7187 44 22.4859C44.0007 22.2784 43.8234 21.8727 43.6779 21.7484C43.6266 21.7047 43.4861 21.6258 43.3657 21.5733C43.1613 21.4841 43.0492 21.4777 41.6684 21.4767L40.1899 21.4757L40.1363 21.3465C39.9687 20.9425 39.7114 20.5064 39.4845 20.2418C39.0519 19.7373 38.3736 19.3054 37.6936 19.1014C37.2843 18.9787 36.3015 18.9644 35.8503 19.0747ZM37.337 21.1215C37.9947 21.4024 38.358 22.0626 38.2292 22.7428C38.166 23.0765 38.0492 23.2911 37.8 23.5308C37.4709 23.8474 37.2161 23.9426 36.6998 23.9416C36.3353 23.941 36.2228 23.922 36.0405 23.8309C35.7411 23.6812 35.4716 23.4253 35.3168 23.1437C35.2051 22.9406 35.1875 22.8515 35.1867 22.4859C35.1856 21.9894 35.2845 21.7442 35.6133 21.4279C35.8619 21.1887 36.0361 21.0975 36.3824 21.0253C36.7178 20.9554 37.0191 20.9858 37.337 21.1215ZM25.8327 27.0177C24.6376 27.1813 23.5896 27.9056 23.0773 28.9222C22.96 29.1551 22.8513 29.3827 22.8358 29.428C22.8098 29.5039 22.6922 29.5103 21.3042 29.5112C19.617 29.5124 19.5561 29.5225 19.2536 29.8539C18.9155 30.2244 18.9155 30.7693 19.2536 31.1398C19.5561 31.4712 19.617 31.4814 21.3042 31.4825C22.6922 31.4835 22.8098 31.4899 22.8358 31.5658C22.8513 31.611 22.96 31.8386 23.0773 32.0716C23.5272 32.9642 24.3982 33.639 25.4448 33.9057C25.825 34.0027 26.613 34.0146 27.0293 33.9298C28.1783 33.6955 29.1628 32.8915 29.6458 31.7928L29.7714 31.5071L36.5324 31.4836C44.0656 31.4574 43.4248 31.4884 43.7474 31.1348C44.0791 30.7715 44.0791 30.2222 43.7474 29.8589C43.4248 29.5054 44.0656 29.5364 36.5324 29.5102L29.7714 29.4867L29.6458 29.201C29.2568 28.3162 28.5854 27.6524 27.6947 27.2721C27.1771 27.0511 26.3821 26.9425 25.8327 27.0177ZM26.6948 29.0589C26.9928 29.1352 27.3429 29.356 27.5199 29.5792C27.9353 30.1031 27.934 30.8922 27.517 31.4181C27.3381 31.6438 26.9346 31.8854 26.621 31.9545C25.3592 32.2327 24.3155 30.9288 24.9097 29.8167C25.2516 29.177 25.9682 28.8728 26.6948 29.0589ZM35.9672 35.085C34.8032 35.3231 33.7367 36.2079 33.329 37.2737L33.2439 37.4961L26.5224 37.5086C19.1189 37.5224 19.6375 37.5009 19.3177 37.8083C19.002 38.1116 18.918 38.5281 19.0964 38.9064C19.2304 39.1907 19.3183 39.277 19.6055 39.4068L19.8497 39.5171L26.5531 39.5176C31.6612 39.518 33.2565 39.5312 33.2565 39.5733C33.2565 39.692 33.651 40.404 33.8606 40.6637C34.3596 41.282 35.1753 41.7777 35.9622 41.9408C36.4264 42.0371 37.2864 42.0126 37.6936 41.8916C38.3702 41.6905 39.0514 41.2571 39.4845 40.7519C39.7114 40.4873 39.9687 40.0512 40.1363 39.6473L40.1899 39.518L41.6684 39.5176C43.1176 39.5172 43.1517 39.5149 43.391 39.4068C43.6782 39.277 43.7661 39.1907 43.9001 38.9064C44.135 38.4082 43.901 37.834 43.3666 37.5975C43.2254 37.535 42.933 37.5177 41.6845 37.498L40.1734 37.4742L40.0567 37.1948C39.4137 35.655 37.6441 34.7421 35.9672 35.085ZM37.3687 37.1607C37.6387 37.2877 37.9656 37.5886 38.0913 37.8256C38.3017 38.2224 38.3034 38.7902 38.0953 39.1825C37.7059 39.9168 36.7491 40.2186 35.9907 39.8465C35.7448 39.7258 35.4319 39.4114 35.2987 39.1513C35.1355 38.8325 35.137 38.1784 35.3017 37.8736C35.5064 37.4946 35.8664 37.2002 36.2847 37.0695C36.5234 36.9949 37.1238 37.0454 37.3687 37.1607Z" fill="white"/>
<defs>
<linearGradient id="paint0_linear_6_3124" x1="31" y1="0" x2="31" y2="62" gradientUnits="userSpaceOnUse">
<stop stop-color="#FFED47"/>
<stop offset="1" stop-color="#BF7A3A"/>
</linearGradient>
</defs>
</svg>
