<svg width="62" height="62" viewBox="0 0 62 62" fill="none" xmlns="http://www.w3.org/2000/svg">
<rect width="62" height="62" rx="6" fill="url(#paint0_linear_6_3122)"/>
<path fill-rule="evenodd" clip-rule="evenodd" d="M35.0829 20.1006C34.4827 20.2321 34.1174 20.3585 33.5968 20.6146C31.9007 21.4493 30.6858 22.9337 30.2013 24.7634C30.0287 25.415 29.9693 26.6594 30.0798 27.3103L30.1423 27.6789L29.4309 27.6321C26.895 27.4648 24.1113 26.5704 21.7465 25.1629C20.4406 24.3855 19.4939 23.6398 18.2134 22.3795C16.8465 21.0342 16.9661 21.0656 16.6131 21.9599C16.0119 23.483 15.9636 24.8718 16.4635 26.2586C16.8525 27.338 17.6773 28.5188 18.5079 29.1857L18.9408 29.5334H18.702C18.2587 29.5334 17.292 29.2995 16.6978 29.0483L16.1072 28.7987V29.1692C16.1072 30.4922 16.8158 32.0971 17.8869 33.1998C18.6802 34.0165 19.4639 34.5049 20.5653 34.869L21.175 35.0705L20.5187 35.167C20.1398 35.2226 19.5353 35.2479 19.0883 35.2267C18.1796 35.1835 18.2041 35.1166 18.7507 36.1486C19.3464 37.2734 20.3247 38.2382 21.4417 38.8025C22.2567 39.214 22.6837 39.3507 23.5335 39.4716L24.2093 39.5677L23.9114 39.7991C23.7477 39.9264 23.3822 40.1696 23.0994 40.3397C20.8938 41.6662 18.4278 42.3031 15.8507 42.2118C14.7183 42.1717 14.7183 42.1734 15.8397 42.767C19.6747 44.7971 23.8154 45.4489 28.1099 44.6981C34.6102 43.5618 39.7809 38.9996 41.9034 32.528C42.4746 30.7863 42.7798 28.9463 42.7798 27.2444V26.2462L43.218 25.9222C44.0407 25.3137 45.3089 23.9743 45.8637 23.1282L46 22.9202L45.6432 23.0709C44.8698 23.3977 42.6123 23.9848 42.5114 23.8853C42.4949 23.869 42.7257 23.6719 43.0245 23.4474C43.8694 22.8123 44.6798 21.7174 45.0307 20.7369L45.1305 20.4583L44.2028 20.8963C43.3325 21.3071 42.2952 21.6791 41.467 21.8772L41.1067 21.9634L40.7049 21.6054C39.9045 20.8923 38.9405 20.3928 37.8817 20.1426C37.1572 19.9714 35.7677 19.9506 35.0829 20.1006Z" fill="white"/>
<defs>
<linearGradient id="paint0_linear_6_3122" x1="3.54286" y1="62" x2="62" y2="2.65714" gradientUnits="userSpaceOnUse">
<stop stop-color="#F60000"/>
<stop offset="1" stop-color="#5F95FF"/>
</linearGradient>
</defs>
</svg>
