<svg preserveAspectRatio="none" width="328" height="661" viewBox="0 0 328 661" fill="none" xmlns="http://www.w3.org/2000/svg">
<g clip-path="url(#clip0_28_3303)">
<mask id="mask0_28_3303" style="mask-type:alpha" maskUnits="userSpaceOnUse" x="0" y="0" width="328" height="661">
<path d="M4.06789 17.6451C0.305908 24.5363 0.305908 33.5575 0.305908 51.5998V609.4C0.305908 627.442 0.305908 636.464 4.06789 643.355C7.37703 649.417 12.6573 654.345 19.1518 657.434C26.5351 660.945 36.2004 660.945 55.531 660.945H272.472C291.803 660.945 301.468 660.945 308.851 657.434C315.346 654.345 320.626 649.417 323.935 643.355C327.697 636.464 327.697 627.442 327.697 609.4V51.5998C327.697 33.5575 327.697 24.5363 323.935 17.6451C320.626 11.5834 315.346 6.65504 308.851 3.56645C301.468 0.0551758 291.803 0.0551758 272.472 0.0551758H255.508C254.667 0.0551758 254.247 0.0551758 253.911 0.16946C253.347 0.361044 252.903 0.775689 252.697 1.30206C252.575 1.61606 252.575 2.00818 252.575 2.79243C252.575 9.06644 252.575 12.2034 251.595 14.7154C249.953 18.9264 246.399 22.2435 241.888 23.7762C239.196 24.6905 235.835 24.6905 229.113 24.6905H98.8899C92.1679 24.6905 88.8069 24.6905 86.1156 23.7762C81.604 22.2435 78.0499 18.9264 76.4078 14.7154C75.4283 12.2034 75.4283 9.06644 75.4283 2.79243C75.4283 2.00818 75.4283 1.61606 75.3058 1.30206C75.1006 0.775689 74.6563 0.361044 74.0924 0.16946C73.7559 0.0551758 73.3358 0.0551758 72.4956 0.0551758H55.531C36.2004 0.0551758 26.5351 0.0551758 19.1518 3.56645C12.6573 6.65504 7.37703 11.5834 4.06789 17.6451Z" fill="#161616"/>
</mask>
<g mask="url(#mask0_28_3303)">
<g filter="url(#filter0_f_28_3303)">
<circle cx="326" cy="608" r="134" fill="#71385E"/>
</g>
<g filter="url(#filter1_f_28_3303)">
<circle cx="-80" cy="127" r="134" fill="white" fill-opacity="0.08"/>
</g>
<g filter="url(#filter2_f_28_3303)">
<circle cx="-147" cy="254" r="134" fill="white" fill-opacity="0.15"/>
</g>
<g filter="url(#filter3_f_28_3303)">
<circle cx="-80" cy="377" r="134" fill="white" fill-opacity="0.04"/>
</g>
</g>
</g>
<defs>
<filter id="filter0_f_28_3303" x="-53" y="229" width="758" height="758" filterUnits="userSpaceOnUse" color-interpolation-filters="sRGB">
<feFlood flood-opacity="0" result="BackgroundImageFix"/>
<feBlend mode="normal" in="SourceGraphic" in2="BackgroundImageFix" result="shape"/>
<feGaussianBlur stdDeviation="122.5" result="effect1_foregroundBlur_28_3303"/>
</filter>
<filter id="filter1_f_28_3303" x="-476" y="-269" width="792" height="792" filterUnits="userSpaceOnUse" color-interpolation-filters="sRGB">
<feFlood flood-opacity="0" result="BackgroundImageFix"/>
<feBlend mode="normal" in="SourceGraphic" in2="BackgroundImageFix" result="shape"/>
<feGaussianBlur stdDeviation="131" result="effect1_foregroundBlur_28_3303"/>
</filter>
<filter id="filter2_f_28_3303" x="-543" y="-142" width="792" height="792" filterUnits="userSpaceOnUse" color-interpolation-filters="sRGB">
<feFlood flood-opacity="0" result="BackgroundImageFix"/>
<feBlend mode="normal" in="SourceGraphic" in2="BackgroundImageFix" result="shape"/>
<feGaussianBlur stdDeviation="131" result="effect1_foregroundBlur_28_3303"/>
</filter>
<filter id="filter3_f_28_3303" x="-476" y="-19" width="792" height="792" filterUnits="userSpaceOnUse" color-interpolation-filters="sRGB">
<feFlood flood-opacity="0" result="BackgroundImageFix"/>
<feBlend mode="normal" in="SourceGraphic" in2="BackgroundImageFix" result="shape"/>
<feGaussianBlur stdDeviation="131" result="effect1_foregroundBlur_28_3303"/>
</filter>
<clipPath id="clip0_28_3303">
<rect width="327.391" height="660.89" fill="white" transform="translate(0.305908 0.0551758)"/>
</clipPath>
</defs>
</svg>
