<svg width="46" height="46" viewBox="0 0 46 46" fill="none" xmlns="http://www.w3.org/2000/svg">
<rect width="46" height="46" rx="6" fill="url(#paint0_linear_2_2704)"/>
<path fill-rule="evenodd" clip-rule="evenodd" d="M21.2646 15.0141C21.1658 15.0233 20.8323 15.0529 20.5234 15.0798C18.3401 15.2699 16.3919 15.8874 15.5888 16.644C15.0877 17.116 14.5921 17.9351 14.0745 19.1469L13.8383 19.6999L12.61 19.722C11.5223 19.7416 11.3681 19.7533 11.2622 19.8242C11.1336 19.9102 11 20.1457 11 20.2865C11 20.4723 11.3675 22.0946 11.4313 22.1905C11.568 22.396 11.755 22.4647 12.178 22.4648L12.5699 22.465L12.3329 22.8079C12.0686 23.1901 11.8479 23.6764 11.732 24.1316C11.6153 24.5904 11.6286 25.6027 11.7575 26.0707C11.9325 26.7063 12.3225 27.3917 12.7251 27.7716L12.8867 27.9241L12.8877 29.121C12.8888 30.4534 12.9075 30.5543 13.1968 30.7941C13.4387 30.9946 13.5784 31.011 14.9118 30.9957L16.1507 30.9815L16.3125 30.8599C16.6437 30.611 16.6801 30.5177 16.7051 29.8533L16.7275 29.2561H22.5H28.2725L28.2949 29.8533C28.3199 30.5177 28.3563 30.611 28.6875 30.8599L28.8493 30.9815L30.0882 30.9957C31.4216 31.011 31.5613 30.9946 31.8032 30.7941C32.0914 30.5553 32.1112 30.4501 32.1123 29.1517L32.1133 27.9855L32.3307 27.7512C32.7724 27.2752 33.0625 26.7467 33.243 26.0887C33.385 25.5714 33.3858 24.5991 33.2447 24.0894C33.1203 23.6399 32.8525 23.0871 32.5917 22.7415L32.383 22.465L32.7984 22.4648C33.2472 22.4647 33.4296 22.3995 33.5692 22.1898C33.6342 22.092 34 20.4792 34 20.2902C34 20.1461 33.8678 19.9111 33.7378 19.8242C33.6319 19.7533 33.4776 19.7416 32.3894 19.722L31.1607 19.6999L30.9277 19.1469C30.4132 17.9262 29.9939 17.2321 29.4427 16.6892C29.1312 16.3824 29.0094 16.2982 28.5645 16.0823C27.56 15.595 26.3569 15.288 24.7012 15.0963C24.1316 15.0304 21.7077 14.9724 21.2646 15.0141ZM24.5678 16.8214C26.0597 17.0012 27.1095 17.2743 27.8682 17.6797C28.2823 17.901 28.533 18.2087 28.9015 18.9478C29.1649 19.4761 29.5977 20.5087 29.5977 20.6088C29.5977 20.6355 26.9818 20.6511 22.5 20.6511C17.462 20.6511 15.4023 20.6373 15.4023 20.6035C15.4023 20.5773 15.4911 20.3334 15.5996 20.0616C16.032 18.9783 16.4718 18.1741 16.7752 17.9116C17.4295 17.3459 19.1698 16.9006 21.3545 16.7397C21.8665 16.702 24.0348 16.7572 24.5678 16.8214ZM16.2813 23.5749C17.6528 23.8223 18.1838 25.4813 17.2014 26.4489C16.5283 27.1117 15.4443 27.1117 14.7713 26.4489C13.8085 25.5006 14.281 23.8807 15.6045 23.5925C15.9478 23.5178 15.9626 23.5174 16.2813 23.5749ZM29.6701 23.6661C30.5838 23.9992 31.0226 25.083 30.6001 25.9635C30.1668 26.8667 29.0983 27.2037 28.1815 26.7262C27.9621 26.6119 27.6165 26.2565 27.4966 26.0217C27.1664 25.375 27.2986 24.5593 27.8161 24.0496C28.3024 23.5707 29.008 23.4247 29.6701 23.6661Z" fill="black" fill-opacity="0.24"/>
<defs>
<linearGradient id="paint0_linear_2_2704" x1="67" y1="-30.5" x2="-9.50001" y2="56" gradientUnits="userSpaceOnUse">
<stop stop-color="#007AFF"/>
<stop offset="1" stop-color="#FA00FF"/>
</linearGradient>
</defs>
</svg>
