<svg width="46" height="46" viewBox="0 0 46 46" fill="none" xmlns="http://www.w3.org/2000/svg">
<rect width="46" height="46" rx="6" fill="url(#paint0_linear_2_2595)"/>
<path d="M24 33.184H22.56C22.224 33.184 22.056 33.016 22.056 32.68V30.832H21.888C20.672 30.832 19.72 30.488 19.032 29.8C18.36 29.096 18.024 28.128 18.024 26.896V26.44C18.024 26.104 18.192 25.936 18.528 25.936H20.568C20.904 25.936 21.072 26.104 21.072 26.44V26.608C21.072 27.216 21.192 27.632 21.432 27.856C21.672 28.08 22.112 28.192 22.752 28.192H23.712C24.336 28.192 24.768 28.072 25.008 27.832C25.264 27.592 25.392 27.144 25.392 26.488V26.128C25.392 25.728 25.272 25.416 25.032 25.192C24.792 24.968 24.512 24.816 24.192 24.736C23.904 24.672 23.336 24.6 22.488 24.52C21.656 24.44 21.032 24.344 20.616 24.232C20.2 24.104 19.776 23.896 19.344 23.608C18.448 23.032 18 21.904 18 20.224V19.336C18 18.072 18.336 17.104 19.008 16.432C19.696 15.744 20.656 15.4 21.888 15.4H22.056V13.504C22.056 13.168 22.224 13 22.56 13H24C24.336 13 24.504 13.168 24.504 13.504V15.4H24.552C25.688 15.4 26.584 15.752 27.24 16.456C27.896 17.16 28.224 18.12 28.224 19.336V19.792C28.224 20.128 28.056 20.296 27.72 20.296H25.68C25.344 20.296 25.176 20.128 25.176 19.792V19.624C25.176 19.016 25.056 18.6 24.816 18.376C24.592 18.152 24.152 18.04 23.496 18.04H22.728C22.072 18.04 21.624 18.168 21.384 18.424C21.16 18.664 21.048 19.144 21.048 19.864V20.344C21.048 20.696 21.168 20.976 21.408 21.184C21.648 21.376 21.92 21.504 22.224 21.568C22.576 21.632 23.168 21.704 24 21.784C24.848 21.848 25.48 21.952 25.896 22.096C26.328 22.224 26.752 22.432 27.168 22.72C28.016 23.328 28.44 24.416 28.44 25.984V26.896C28.44 28.144 28.088 29.112 27.384 29.8C26.696 30.488 25.752 30.832 24.552 30.832H24.504V32.68C24.504 33.016 24.336 33.184 24 33.184Z" fill="#562DAD"/>
<defs>
<linearGradient id="paint0_linear_2_2595" x1="67" y1="-30.5" x2="-9.50001" y2="56" gradientUnits="userSpaceOnUse">
<stop stop-color="#007AFF"/>
<stop offset="1" stop-color="#FA00FF"/>
</linearGradient>
</defs>
</svg>
