<svg width="62" height="62" viewBox="0 0 62 62" fill="none" xmlns="http://www.w3.org/2000/svg">
<rect width="62" height="62" rx="6" fill="url(#paint0_linear_6_3117)"/>
<path fill-rule="evenodd" clip-rule="evenodd" d="M25.0001 20.9707L18.0276 24.9415L18.0138 34.9707L18 45H19.4766H20.9533V36.7688V28.5376L21.1129 28.3547L21.2725 28.1718H32H42.7275L42.8871 28.3547L43.0467 28.5376V36.7688V45H44.5234H46L45.9862 34.9707L45.9724 24.9415L38.9999 20.9707C35.165 18.7868 32.015 17 32 17C31.985 17 28.835 18.7868 25.0001 20.9707ZM22.0471 30.8319V32.3439H32H41.9529V30.8319V29.3198H32H22.0471V30.8319ZM22.0471 34.9759V36.4879H32H41.9529V34.9759V33.4639H32H22.0471V34.9759ZM22.0837 37.6451C22.0635 37.6657 22.0471 38.3462 22.0471 39.1573V40.632H32.0009H41.9547L41.9401 39.1339L41.9256 37.6359L32.0229 37.6218C26.5765 37.614 22.1038 37.6245 22.0837 37.6451ZM22.0471 43.404V45H32H41.9529V43.404V41.808H32H22.0471V43.404Z" fill="white"/>
<defs>
<linearGradient id="paint0_linear_6_3117" x1="3.54286" y1="62" x2="62" y2="2.65714" gradientUnits="userSpaceOnUse">
<stop stop-color="#0364F7"/>
<stop offset="1" stop-color="#2E4FFF"/>
</linearGradient>
</defs>
</svg>
