<svg width="62" height="62" viewBox="0 0 62 62" fill="none" xmlns="http://www.w3.org/2000/svg">
<rect width="62" height="62" rx="6" fill="url(#paint0_linear_6_3120)"/>
<path fill-rule="evenodd" clip-rule="evenodd" d="M43.3129 16.2848C43.013 16.4432 39.7592 18.1568 36.0823 20.0928C32.4053 22.0288 26.2576 25.2658 22.4206 27.2863C18.5836 29.3067 15.3804 31.019 15.3025 31.0913C15.127 31.2543 15 31.5454 15 31.7851C15 32.0199 15.1971 32.4075 15.377 32.5264C15.582 32.6618 23.3917 35.3429 23.4808 35.3084C23.5221 35.2924 24.6459 34.3388 25.978 33.1894C27.3101 32.0399 30.9598 28.8951 34.0884 26.2007C37.217 23.5065 39.8415 21.2459 39.9206 21.1773L40.0644 21.0524L39.9206 21.232C39.8415 21.3307 36.9663 24.8254 33.5313 28.998C30.0963 33.1705 27.2791 36.6023 27.2709 36.6241C27.2597 36.6542 39.853 41.0257 40.4923 41.2136C40.7891 41.3008 41.3099 41.0401 41.4725 40.7228C41.5901 40.4935 45.0463 16.9854 44.9995 16.7336C44.9523 16.4797 44.7068 16.1822 44.4583 16.0775C44.1235 15.9364 43.8939 15.978 43.3129 16.2848ZM25.9663 41.2779C25.9663 44.59 25.9599 44.5218 26.2954 44.7878C26.6819 45.0944 27.2046 45.0659 27.5314 44.7204C27.7679 44.4703 31.025 39.9995 30.9937 39.9679C30.9702 39.9443 26.0339 38.2298 25.9892 38.2298C25.9766 38.2298 25.9663 39.6014 25.9663 41.2779Z" fill="white"/>
<defs>
<linearGradient id="paint0_linear_6_3120" x1="3.54286" y1="62" x2="62" y2="2.65714" gradientUnits="userSpaceOnUse">
<stop stop-color="#0080F6"/>
<stop offset="1" stop-color="#FC5FFF"/>
</linearGradient>
</defs>
</svg>
