<svg width="62" height="62" viewBox="0 0 62 62" fill="none" xmlns="http://www.w3.org/2000/svg">
<rect width="62" height="62" rx="6" fill="url(#paint0_linear_6_3123)"/>
<path fill-rule="evenodd" clip-rule="evenodd" d="M22.4712 16.043C20.7908 16.2624 19.2326 17.0514 18.0546 18.2795C17.0352 19.3423 16.3719 20.6558 16.0818 22.1858C15.9727 22.761 15.9727 39.2453 16.0818 39.8205C16.6762 42.9564 18.898 45.2273 22.0231 45.8933C22.4916 45.9932 23.0387 45.9997 31.0033 45.9997C40.4182 45.9997 39.7651 46.0251 41.0107 45.6109C43.2132 44.8785 45.0537 42.9631 45.7009 40.7299C46.0106 39.6613 45.9997 40.0158 45.9997 30.9738C45.9997 21.5916 46.025 22.241 45.6109 20.9957C44.9057 18.8749 43.125 17.099 40.9933 16.3903C39.772 15.9843 40.4934 16.0131 31.2381 16.0011C26.5739 15.9951 22.6959 16.0136 22.4712 16.043ZM39.7488 19.1364C41.3661 19.6301 42.4521 20.7366 42.8747 22.3216L43.0063 22.8152V31.0031V39.1911L42.8747 39.6847C42.4444 41.2985 41.2986 42.4444 39.6848 42.8747L39.1912 43.0063H30.974H22.7568L22.288 42.8706C20.6809 42.4053 19.5965 41.3214 19.1355 39.7193L19.0004 39.2498V31.0031V22.7565L19.1355 22.2869C19.4844 21.0745 20.1944 20.157 21.2601 19.5417C21.5952 19.3482 22.3409 19.0979 22.7746 19.0332C22.9585 19.0058 26.7539 18.9876 31.2088 18.9927L39.3086 19.002L39.7488 19.1364ZM38.1525 22.0449C37.5687 22.2049 37.1862 22.6098 37.0524 23.2094C36.9141 23.8284 37.2439 24.5072 37.8275 24.8046C39.227 25.518 40.6084 23.9344 39.729 22.6248C39.4073 22.1457 38.7147 21.8909 38.1525 22.0449ZM29.9841 23.5528C27.1529 23.9448 24.7841 25.8818 23.9036 28.5249C23.6002 29.4355 23.5225 29.941 23.5225 31.0031C23.5225 32.0653 23.6002 32.5708 23.9036 33.4814C24.733 35.9713 26.8524 37.8142 29.536 38.3791C30.2307 38.5254 31.777 38.5252 32.4707 38.3789C35.1578 37.8119 37.2732 35.9725 38.1031 33.4814C38.4065 32.5708 38.4842 32.0653 38.4842 31.0031C38.4842 30.2964 38.4558 29.8999 38.379 29.5358C38.0534 27.9927 37.3587 26.6941 36.301 25.6514C35.2449 24.6103 33.9901 23.945 32.5 23.636C31.9421 23.5203 30.5509 23.4742 29.9841 23.5528ZM32.2359 26.6621C33.7927 27.0921 34.9304 28.238 35.3547 29.8033C35.5325 30.4593 35.5325 31.547 35.3547 32.203C34.9273 33.7796 33.7798 34.9272 32.2032 35.3545C31.5284 35.5374 30.448 35.5374 29.8009 35.3544C28.2034 34.9028 27.0991 33.7989 26.6515 32.2064C26.4644 31.5409 26.4644 30.4654 26.6515 29.7999C26.9895 28.5974 27.7052 27.6711 28.7729 27.0547C29.1028 26.8642 29.8465 26.6129 30.2874 26.543C30.7825 26.4644 31.73 26.5224 32.2359 26.6621Z" fill="white"/>
<defs>
<linearGradient id="paint0_linear_6_3123" x1="3.54286" y1="62" x2="62" y2="2.65714" gradientUnits="userSpaceOnUse">
<stop stop-color="#22F600"/>
<stop offset="1" stop-color="#5F82FF"/>
</linearGradient>
</defs>
</svg>
