<svg width="62" height="62" viewBox="0 0 62 62" fill="none" xmlns="http://www.w3.org/2000/svg">
<rect width="62" height="62" rx="6" fill="url(#paint0_linear_6_3115)"/>
<path fill-rule="evenodd" clip-rule="evenodd" d="M26.7283 21.0693C21.0286 23.3058 16.2228 25.2068 16.0488 25.2937C15.6367 25.4994 15.2927 25.8909 15.1302 26.339L15 26.6982L15.016 35.1189L15.032 43.5396L15.1821 43.8523C15.3734 44.2509 15.7365 44.6255 16.1228 44.8229L16.4259 44.9777L30.3948 44.9941C43.0654 45.0089 44.3925 45.0011 44.673 44.9103C45.1392 44.7593 45.5306 44.4193 45.7831 43.9461L46 43.5396V35.0048V26.4699L45.7929 26.0759C45.5629 25.6383 45.3742 25.4498 44.9156 25.2003L44.6061 25.0318L33.4249 25.0136L22.2437 24.9954L30.0312 21.9345C37.047 19.1767 37.8378 18.8522 38.012 18.6594C38.5799 18.0304 38.1264 16.9875 37.2903 17.0001C37.1797 17.0017 32.4909 18.8082 26.7283 21.0693ZM26.0236 29.1564C27.1098 29.432 27.9649 29.9358 28.788 30.785C29.6179 31.6413 30.0949 32.5076 30.3762 33.6696C30.5199 34.2636 30.5199 35.7461 30.376 36.3405C30.0996 37.4826 29.5983 38.3964 28.7919 39.2284C27.9854 40.0605 27.0998 40.5777 25.9928 40.8629C25.4164 41.0114 23.9799 41.0114 23.4035 40.8629C22.2965 40.5777 21.4109 40.0605 20.6044 39.2284C19.798 38.3964 19.2967 37.4826 19.0203 36.3405C18.8763 35.7458 18.8763 34.2637 19.0203 33.669C19.5813 31.3511 21.3633 29.565 23.5467 29.1321C23.73 29.0957 23.9345 29.053 24.0012 29.0371C24.2465 28.9787 25.6492 29.0614 26.0236 29.1564ZM23.8599 31.0989C22.7695 31.3431 21.7419 32.1686 21.2521 33.1936C20.4872 34.7944 20.7632 36.5838 21.9653 37.8177C23.5037 39.3967 25.9055 39.3997 27.4245 37.8243C28.9578 36.2343 28.9578 33.7752 27.4245 32.1852C26.4886 31.2145 25.1564 30.8086 23.8599 31.0989ZM42.1517 32.0035V33.0039H38.2732H34.3946V32.0035V31.0031H38.2732H42.1517V32.0035ZM42.1517 36.0052V37.0056H38.2732H34.3946V36.0052V35.0048H38.2732H42.1517V36.0052ZM42.1517 40.0069V41.0073H38.2732H34.3946V40.0069V39.0065H38.2732H42.1517V40.0069Z" fill="white"/>
<defs>
<linearGradient id="paint0_linear_6_3115" x1="3.54286" y1="62" x2="62" y2="2.65714" gradientUnits="userSpaceOnUse">
<stop stop-color="#F60094"/>
<stop offset="1" stop-color="#FF5F72"/>
</linearGradient>
</defs>
</svg>
