<svg width="62" height="62" viewBox="0 0 62 62" fill="none" xmlns="http://www.w3.org/2000/svg">
<rect width="62" height="62" rx="6" fill="url(#paint0_linear_6_3125)"/>
<path fill-rule="evenodd" clip-rule="evenodd" d="M15.0392 18.0346C14.6659 18.1235 14.3413 18.3757 14.1614 18.7173C13.8797 19.2516 13.9694 19.7876 14.4101 20.2043C14.8027 20.5754 14.9587 20.5993 16.9984 20.5997C18.0363 20.5999 18.8979 20.6266 19.0364 20.663C19.298 20.7317 19.6293 20.9672 19.7405 21.1636C19.7792 21.232 20.7794 24.3908 21.9632 28.1833C23.2514 32.3102 24.1977 35.2378 24.3201 35.4749C24.6159 36.0483 25.4124 36.7868 26.0514 37.0801C26.9831 37.5077 26.5735 37.4869 34.0454 37.4859C41.5324 37.4849 41.1858 37.5026 42.1089 37.0744C42.7789 36.7635 43.4837 36.0984 43.8049 35.4736C44.0053 35.0839 46.7211 27.0687 46.9506 26.1896C47.0509 25.8054 46.9952 25.2305 46.8136 24.7755C46.6114 24.2691 45.9143 23.6059 45.3656 23.3979L44.9786 23.2513L34.1311 23.2354L23.2835 23.2194L23.1454 22.7782C22.5594 20.9049 22.3429 20.2831 22.1651 19.9621C21.8797 19.447 21.1087 18.732 20.5377 18.453C19.7071 18.047 19.5431 18.0244 17.2811 18.0034C16.1638 17.9931 15.155 18.0071 15.0392 18.0346ZM28.2463 38.9488C27.1776 39.3224 26.4851 40.1672 26.3926 41.2099C26.3254 41.9686 26.6403 42.7329 27.2418 43.2707C28.6154 44.4989 30.7709 44.1261 31.6026 42.5164C31.8129 42.1094 31.8231 42.0586 31.8231 41.419C31.8231 40.7917 31.8098 40.722 31.6177 40.3386C31.333 39.7703 30.911 39.3632 30.3207 39.0875C29.8814 38.8822 29.7833 38.8605 29.2186 38.8439C28.7216 38.8292 28.5289 38.85 28.2463 38.9488ZM37.9172 38.9388C37.4444 39.0871 37.111 39.2949 36.7358 39.6752C35.735 40.6896 35.7758 42.2363 36.8297 43.2348C38.4111 44.7331 41.077 43.9118 41.4647 41.8068C41.6175 40.9772 41.2975 40.1304 40.5971 39.5109C40.0613 39.0371 39.6425 38.8782 38.8523 38.8491C38.4152 38.8329 38.1843 38.8551 37.9172 38.9388Z" fill="white"/>
<defs>
<linearGradient id="paint0_linear_6_3125" x1="3.54286" y1="62" x2="62" y2="2.65714" gradientUnits="userSpaceOnUse">
<stop stop-color="#F60000"/>
<stop offset="1" stop-color="#FFF95F"/>
</linearGradient>
</defs>
</svg>
