<svg width="62" height="62" viewBox="0 0 62 62" fill="none" xmlns="http://www.w3.org/2000/svg">
<rect width="62" height="62" rx="6" fill="url(#paint0_linear_6_3119)"/>
<path fill-rule="evenodd" clip-rule="evenodd" d="M30.1611 15.0955C22.7634 16.0041 16.9494 21.9012 16.1839 29.2728C16.0704 30.3653 16.1391 32.4339 16.3236 33.478C16.6157 35.1312 17.099 36.5858 17.8501 38.0721L18.2275 38.8191L17.1029 42.9014C16.4844 45.1467 15.9882 46.991 16.0002 46.9999C16.0123 47.0087 17.8962 46.5239 20.1866 45.9225C23.521 45.0471 24.3845 44.8418 24.519 44.8927C24.6113 44.9277 25.0496 45.1198 25.4929 45.3196C26.9327 45.9685 28.4447 46.3988 30.0357 46.6126C31.1415 46.7612 33.082 46.7604 34.1576 46.6107C37.688 46.1196 40.8422 44.5681 43.3283 42.0997C44.6283 40.809 45.4927 39.6283 46.3158 38.0197C47.0569 36.571 47.5799 34.9918 47.872 33.3196C48.0429 32.3423 48.0426 29.4704 47.8716 28.4462C47.5828 26.7159 47.1369 25.3335 46.3751 23.8065C44.2071 19.4612 40.2035 16.3636 35.4166 15.3279C33.9244 15.005 31.699 14.9066 30.1611 15.0955ZM34.3591 17.8585C36.2859 18.2126 37.8836 18.8524 39.4639 19.9024C42.1617 21.6952 44.1477 24.479 44.9327 27.5683C45.5092 29.837 45.4639 32.4138 44.8091 34.5954C43.7505 38.1226 41.2273 41.0917 37.9255 42.6954C36.0058 43.6278 34.2295 44.0343 32.0754 44.0343C29.6064 44.0343 27.4177 43.4389 25.184 42.1594L24.8078 41.944L22.3359 42.5896C20.9762 42.9446 19.8535 43.2248 19.8409 43.2123C19.8283 43.1998 20.1072 42.1424 20.4608 40.8626C20.8143 39.5828 21.1061 38.4886 21.1093 38.4311C21.1125 38.3736 20.9386 38.0411 20.723 37.6923C17.5552 32.5681 18.3855 25.8105 22.7079 21.5367C24.858 19.4108 27.5801 18.1044 30.6313 17.7338C31.4553 17.6338 33.5102 17.7025 34.3591 17.8585ZM25.805 23.6834C25.4166 23.8746 24.7068 24.7077 24.4101 25.3209C23.8272 26.5253 23.8391 28.0436 24.4424 29.4495C25.1838 31.1771 27.1236 33.6301 29.0386 35.2614C30.3809 36.4048 31.5024 37.0749 33.1501 37.7176C34.8332 38.3742 35.1561 38.4498 36.2734 38.4493C37.1521 38.449 37.2916 38.4324 37.7002 38.2794C38.372 38.0278 38.8734 37.7109 39.3729 37.2222C39.7605 36.8429 39.8385 36.7243 39.9654 36.3209C40.1237 35.818 40.2141 35.0087 40.1433 34.7285C40.1063 34.5821 39.9166 34.4632 38.9623 33.9883C37.2139 33.1183 36.5092 32.8189 36.2097 32.8189C35.9643 32.8189 35.9225 32.8488 35.6258 33.2362C34.9476 34.1216 34.3253 34.8073 34.1632 34.8477C33.969 34.8961 33.5874 34.7573 32.7061 34.3173C31.2792 33.6051 30.115 32.6526 29.1141 31.3786C28.5694 30.6853 28.0789 29.8951 28.0789 29.711C28.0789 29.6322 28.3314 29.2403 28.6401 28.8401C29.2451 28.0558 29.4222 27.7631 29.4222 27.5477C29.4222 27.4721 29.291 27.1026 29.1307 26.7266C28.9704 26.3506 28.647 25.5773 28.4122 25.0082C28.121 24.3028 27.9166 23.9043 27.77 23.7565L27.555 23.5395L26.8262 23.5396C26.2153 23.5396 26.0501 23.5629 25.805 23.6834Z" fill="white"/>
<defs>
<linearGradient id="paint0_linear_6_3119" x1="31" y1="0" x2="31" y2="62" gradientUnits="userSpaceOnUse">
<stop stop-color="#47BDFF"/>
<stop offset="1" stop-color="#3D3ABF"/>
</linearGradient>
</defs>
</svg>
