<svg width="328" height="96" viewBox="0 0 328 96" fill="none" xmlns="http://www.w3.org/2000/svg" preserveAspectRatio="none">
  <rect y="48" width="328" height="48" fill="#552D38" fill-opacity="0.5" />
  <rect x="8" y="16" width="4" height="62" rx="2" fill="white" />
  <rect x="15" y="25" width="4" height="44" rx="2" fill="white" />
  <rect x="22" y="37" width="4" height="20" rx="2" fill="white" />
  <rect x="29" y="25" width="4" height="44" rx="2" fill="white" />
  <rect x="36" y="16" width="4" height="62" rx="2" fill="white" />
  <rect x="43" y="21" width="4" height="52" rx="2" fill="white" />
  <rect x="50" y="16" width="4" height="62" rx="2" fill="white" />
  <rect x="57" y="37" width="4" height="20" rx="2" fill="white" />
  <rect x="64" y="21" width="4" height="52" rx="2" fill="white" />
  <rect x="71" y="25" width="4" height="44" rx="2" fill="white" />
  <rect x="78" y="16" width="4" height="62" rx="2" fill="white" />
  <rect x="85" y="31" width="4" height="32" rx="2" fill="white" />
  <rect x="92" y="21" width="4" height="52" rx="2" fill="white" />
  <rect x="99" y="21" width="4" height="52" rx="2" fill="white" />
  <rect x="106" y="18" width="4" height="58" rx="2" fill="white" />
  <rect x="113" y="31" width="4" height="32" rx="2" fill="white" />
  <rect x="120" y="39" width="4" height="16" rx="2" fill="white" />
  <rect x="127" y="23" width="4" height="48" rx="2" fill="white" />
  <rect x="134" y="35" width="4" height="24" rx="2" fill="white" />
  <rect x="141" y="25" width="4" height="44" rx="2" fill="white" />
  <rect x="148" y="25" width="4" height="44" rx="2" fill="white" />
  <rect x="155" y="16" width="4" height="62" rx="2" fill="white" />
  <rect x="162" y="21" width="4" height="52" rx="2" fill="white" />
  <rect x="169" y="16" width="4" height="62" rx="2" fill="white" />
  <rect x="176" y="28" width="4" height="38" rx="2" fill="white" />
  <rect x="183" y="16" width="4" height="62" rx="2" fill="white" />
  <rect x="190" y="21" width="4" height="52" rx="2" fill="white" />
  <rect x="197" y="21" width="4" height="52" rx="2" fill="white" />
  <rect x="204" y="21" width="4" height="52" rx="2" fill="white" />
  <rect x="211" y="28" width="4" height="38" rx="2" fill="white" />
  <rect x="218" y="21" width="4" height="52" rx="2" fill="white" />
  <rect x="225" y="37" width="4" height="20" rx="2" fill="white" />
  <rect x="232" y="16" width="4" height="62" rx="2" fill="white" />
  <rect x="239" y="31" width="4" height="32" rx="2" fill="white" />
  <rect x="246" y="21" width="4" height="52" rx="2" fill="white" />
  <rect x="253" y="16" width="4" height="62" rx="2" fill="white" />
  <rect x="260" y="25" width="4" height="44" rx="2" fill="white" />
  <rect x="267" y="16" width="4" height="62" rx="2" fill="white" />
  <rect x="274" y="25" width="4" height="44" rx="2" fill="white" />
  <rect x="281" y="25" width="4" height="53" rx="2" fill="white" />
  <rect x="288" y="18" width="4" height="58" rx="2" fill="white" />
  <rect x="295" y="16" width="4" height="62" rx="2" fill="white" />
  <rect x="302" y="23" width="4" height="48" rx="2" fill="white" />
  <rect x="309" y="25" width="4" height="44" rx="2" fill="white" />
  <rect x="316" y="35" width="4" height="24" rx="2" fill="white" />
</svg>